<?xml version="1.0" encoding="UTF-8" standalone="no"?><!DOCTYPE svg PUBLIC "-//W3C//DTD SVG 1.1//EN" "http://www.w3.org/Graphics/SVG/1.1/DTD/svg11.dtd"><svg width="100%" height="100%" viewBox="0 0 128 128" version="1.1" xmlns="http://www.w3.org/2000/svg" xmlns:xlink="http://www.w3.org/1999/xlink" xml:space="preserve" xmlns:serif="http://www.serif.com/" style="fill-rule:evenodd;clip-rule:evenodd;stroke-linejoin:round;stroke-miterlimit:2;"><g id="MintWatch"><path d="M22.308,94.833c-7.334,-9.763 -11.709,-22.369 -11.709,-36.361c0,-27.755 26.917,-55.135 55.885,-55.146c58.939,-0.024 55.822,-0.193 55.884,4.112c0.213,14.802 -0.038,32.221 -0.038,49.785c-0,32.057 -30.97,58.083 -59.869,58.083c-10.532,-0 -20.276,-3.291 -28.407,-9.026l-12.371,13.501c-3.376,3.684 -8.825,4.194 -12.16,1.137c-3.335,-3.056 -3.303,-8.528 0.073,-12.212l12.712,-13.873Zm87.232,-78.218c-8.078,-0.172 -22.445,-0.391 -43.051,-0.383c-22.235,0.009 -42.983,20.936 -42.983,42.24c-0,24.462 16.902,43.928 38.955,43.928c22.576,-0 46.963,-20.133 46.963,-45.177c-0,-14.054 0.162,-28.016 0.116,-40.608Zm-21.108,38.293c0.875,0.611 1.396,1.612 1.396,2.68c0,1.069 -0.521,2.07 -1.396,2.68l-31.061,21.688c-0.996,0.696 -2.295,0.779 -3.372,0.216c-1.076,-0.563 -1.751,-1.679 -1.751,-2.896l0,-43.376c0,-1.216 0.675,-2.332 1.751,-2.895c1.077,-0.563 2.376,-0.48 3.372,0.215l31.061,21.688Z" style="fill:currentColor;"/></g></svg>