<?xml version="1.0" encoding="UTF-8" standalone="no"?><!DOCTYPE svg PUBLIC "-//W3C//DTD SVG 1.1//EN" "http://www.w3.org/Graphics/SVG/1.1/DTD/svg11.dtd"><svg width="100%" height="100%" viewBox="0 0 128 128" version="1.1" xmlns="http://www.w3.org/2000/svg" xmlns:xlink="http://www.w3.org/1999/xlink" xml:space="preserve" xmlns:serif="http://www.serif.com/" style="fill-rule:evenodd;clip-rule:evenodd;stroke-linejoin:round;stroke-miterlimit:2;"><g><g id="MintWatch"><path d="M116,17.276l-0,33.3c-0,3.228 -2.621,5.85 -5.85,5.85l-38.3,-0c-3.229,-0 -5.85,-2.622 -5.85,-5.85l0,-33.3c0,-3.229 2.621,-5.85 5.85,-5.85l38.3,-0c3.229,-0 5.85,2.621 5.85,5.85Z" style="fill:url(#_Linear1);"/><path d="M116,17.276l-0,33.3c-0,3.228 -2.621,5.85 -5.85,5.85l-38.3,-0c-3.229,-0 -5.85,-2.622 -5.85,-5.85l0,-33.3c0,-3.229 2.621,-5.85 5.85,-5.85l38.3,-0c3.229,-0 5.85,2.621 5.85,5.85Z" style="fill:url(#_Linear2);"/><path d="M62,11.276l-0,33.3c-0,3.228 -2.621,5.85 -5.85,5.85l-37.3,-0c-3.229,-0 -5.85,-2.622 -5.85,-5.85l0,-33.3c0,-3.229 2.621,-5.85 5.85,-5.85l37.3,-0c3.229,-0 5.85,2.621 5.85,5.85Z" style="fill:url(#_Linear3);"/><path d="M62,11.276l-0,33.3c-0,3.228 -2.621,5.85 -5.85,5.85l-37.3,-0c-3.229,-0 -5.85,-2.622 -5.85,-5.85l0,-33.3c0,-3.229 2.621,-5.85 5.85,-5.85l37.3,-0c3.229,-0 5.85,2.621 5.85,5.85Z" style="fill:url(#_Linear4);"/><path d="M125,40.112l0,65.115c0,8.105 -6.581,14.686 -14.686,14.686l-92.628,-0c-8.105,-0 -14.686,-6.581 -14.686,-14.686l-0,-65.115c-0,-8.106 6.581,-14.686 14.686,-14.686l92.628,-0c8.105,-0 14.686,6.58 14.686,14.686Zm-5,-0c-0,-5.346 -4.34,-9.686 -9.686,-9.686l-92.628,-0c-5.346,-0 -9.686,4.34 -9.686,9.686l-0,65.115c-0,5.346 4.34,9.686 9.686,9.686l92.628,-0c5.346,-0 9.686,-4.34 9.686,-9.686l-0,-65.115Z" style="fill:url(#_Linear5);"/><path d="M125,40.112l0,65.115c0,8.105 -6.581,14.686 -14.686,14.686l-92.628,-0c-8.105,-0 -14.686,-6.581 -14.686,-14.686l-0,-65.115c-0,-8.106 6.581,-14.686 14.686,-14.686l92.628,-0c8.105,-0 14.686,6.58 14.686,14.686Zm-5,-0c-0,-5.346 -4.34,-9.686 -9.686,-9.686l-92.628,-0c-5.346,-0 -9.686,4.34 -9.686,9.686l-0,65.115c-0,5.346 4.34,9.686 9.686,9.686l92.628,-0c5.346,-0 9.686,-4.34 9.686,-9.686l-0,-65.115Z" style="fill:url(#_Linear6);"/><path d="M120,39.694l0,65.922c0,5.131 -4.166,9.297 -9.297,9.297l-93.406,-0c-5.131,-0 -9.297,-4.166 -9.297,-9.297l-0,-65.922c-0,-5.131 4.166,-9.297 9.297,-9.297l93.406,0c5.131,0 9.297,4.166 9.297,9.297Z" style="fill:url(#_Linear7);"/><path d="M120,39.694l0,65.922c0,5.131 -4.166,9.297 -9.297,9.297l-93.406,-0c-5.131,-0 -9.297,-4.166 -9.297,-9.297l-0,-65.922c-0,-5.131 4.166,-9.297 9.297,-9.297l93.406,0c5.131,0 9.297,4.166 9.297,9.297Z" style="fill:url(#_Linear8);"/><path d="M39.386,93.164c-4.253,-5.662 -6.791,-12.973 -6.791,-21.088c0,-16.097 15.611,-31.977 32.411,-31.983c34.183,-0.014 32.376,-0.112 32.412,2.385c0.123,8.584 -0.022,18.687 -0.022,28.874c-0,18.591 -17.962,33.686 -34.723,33.686c-6.108,-0 -11.759,-1.909 -16.475,-5.235l-7.175,7.83c-1.957,2.137 -5.118,2.432 -7.052,0.66c-1.934,-1.773 -1.915,-4.947 0.043,-7.083l7.372,-8.046Zm50.592,-45.364c-4.685,-0.1 -13.018,-0.227 -24.969,-0.222c-12.895,0.005 -24.928,12.142 -24.928,24.498c-0,14.187 9.802,25.477 22.592,25.477c13.094,-0 27.237,-11.677 27.237,-26.201c0,-8.151 0.095,-16.249 0.068,-23.552Zm-12.365,22.123c0.536,0.375 0.855,0.987 0.855,1.64c0,0.654 -0.319,1.266 -0.855,1.64l-17.718,12.371c-0.611,0.427 -1.408,0.479 -2.069,0.134c-0.661,-0.345 -1.076,-1.028 -1.076,-1.773l0,-24.743c0,-0.745 0.415,-1.429 1.076,-1.774c0.661,-0.344 1.458,-0.293 2.069,0.134l17.718,12.371Z" style="fill:url(#_Linear9);"/><path d="M39.386,93.164c-4.253,-5.662 -6.791,-12.973 -6.791,-21.088c0,-16.097 15.611,-31.977 32.411,-31.983c34.183,-0.014 32.376,-0.112 32.412,2.385c0.123,8.584 -0.022,18.687 -0.022,28.874c-0,18.591 -17.962,33.686 -34.723,33.686c-6.108,-0 -11.759,-1.909 -16.475,-5.235l-7.175,7.83c-1.957,2.137 -5.118,2.432 -7.052,0.66c-1.934,-1.773 -1.915,-4.947 0.043,-7.083l7.372,-8.046Zm50.592,-45.364c-4.685,-0.1 -13.018,-0.227 -24.969,-0.222c-12.895,0.005 -24.928,12.142 -24.928,24.498c-0,14.187 9.802,25.477 22.592,25.477c13.094,-0 27.237,-11.677 27.237,-26.201c0,-8.151 0.095,-16.249 0.068,-23.552Zm-12.365,22.123c0.536,0.375 0.855,0.987 0.855,1.64c0,0.654 -0.319,1.266 -0.855,1.64l-17.718,12.371c-0.611,0.427 -1.408,0.479 -2.069,0.134c-0.661,-0.345 -1.076,-1.028 -1.076,-1.773l0,-24.743c0,-0.745 0.415,-1.429 1.076,-1.774c0.661,-0.344 1.458,-0.293 2.069,0.134l17.718,12.371Z" style="fill:url(#_Linear10);"/></g></g><defs><linearGradient id="_Linear1" x1="0" y1="0" x2="1" y2="0" gradientUnits="userSpaceOnUse" gradientTransform="matrix(1.61989e-15,-28.4551,6.73493,4.43577e-16,66,40.5111)"><stop offset="0" style="stop-color:#2c3b45;stop-opacity:1"/><stop offset="1" style="stop-color:#6e959d;stop-opacity:1"/></linearGradient><linearGradient id="_Linear2" x1="0" y1="0" x2="1" y2="0" gradientUnits="userSpaceOnUse" gradientTransform="matrix(1.61989e-15,-28.4551,6.73493,4.43577e-16,66,40.5111)"><stop offset="0" style="stop-color:#2c3b45;stop-opacity:1"/><stop offset="1" style="stop-color:#6e959d;stop-opacity:1"/></linearGradient><linearGradient id="_Linear3" x1="0" y1="0" x2="1" y2="0" gradientUnits="userSpaceOnUse" gradientTransform="matrix(1.58749e-15,-28.4551,6.60023,4.43577e-16,13,34.5111)"><stop offset="0" style="stop-color:#58b072;stop-opacity:1"/><stop offset="1" style="stop-color:#86e9ff;stop-opacity:1"/></linearGradient><linearGradient id="_Linear4" x1="0" y1="0" x2="1" y2="0" gradientUnits="userSpaceOnUse" gradientTransform="matrix(1.58749e-15,-28.4551,6.60023,4.43577e-16,13,34.5111)"><stop offset="0" style="stop-color:#58b072;stop-opacity:1"/><stop offset="1" style="stop-color:#86e9ff;stop-opacity:1"/></linearGradient><linearGradient id="_Linear5" x1="0" y1="0" x2="1" y2="0" gradientUnits="userSpaceOnUse" gradientTransform="matrix(-125,-128,119.955,-117.144,125,128)"><stop offset="0" style="stop-color:#0d4460;stop-opacity:1"/><stop offset="1" style="stop-color:#2edacc;stop-opacity:1"/></linearGradient><linearGradient id="_Linear6" x1="0" y1="0" x2="1" y2="0" gradientUnits="userSpaceOnUse" gradientTransform="matrix(-125,-128,119.955,-117.144,125,128)"><stop offset="0" style="stop-color:#0d4460;stop-opacity:1"/><stop offset="1" style="stop-color:#2edacc;stop-opacity:1"/></linearGradient><linearGradient id="_Linear7" x1="0" y1="0" x2="1" y2="0" gradientUnits="userSpaceOnUse" gradientTransform="matrix(5.17508e-15,-84.5155,84.5155,5.17508e-15,67.6094,114.913)"><stop offset="0" style="stop-color:#3b3b3b;stop-opacity:1"/><stop offset="1" style="stop-color:#5b5b5b;stop-opacity:1"/></linearGradient><linearGradient id="_Linear8" x1="0" y1="0" x2="1" y2="0" gradientUnits="userSpaceOnUse" gradientTransform="matrix(5.17508e-15,-84.5155,84.5155,5.17508e-15,67.6094,114.913)"><stop offset="0" style="stop-color:#3b3b3b;stop-opacity:1"/><stop offset="1" style="stop-color:#5b5b5b;stop-opacity:1"/></linearGradient><linearGradient id="_Linear9" x1="0" y1="0" x2="1" y2="0" gradientUnits="userSpaceOnUse" gradientTransform="matrix(0.479659,-58.482,35.9962,0.295235,65.8146,105.482)"><stop offset="0" style="stop-color:#fff;stop-opacity:1"/><stop offset="1" style="stop-color:#fff;stop-opacity:1"/></linearGradient><linearGradient id="_Linear10" x1="0" y1="0" x2="1" y2="0" gradientUnits="userSpaceOnUse" gradientTransform="matrix(0.479659,-58.482,35.9962,0.295235,65.8146,105.482)"><stop offset="0" style="stop-color:#fff;stop-opacity:1"/><stop offset="1" style="stop-color:#fff;stop-opacity:1"/></linearGradient></defs></svg>