<?xml version="1.0" encoding="UTF-8" standalone="no"?><!DOCTYPE svg PUBLIC "-//W3C//DTD SVG 1.1//EN" "http://www.w3.org/Graphics/SVG/1.1/DTD/svg11.dtd"><svg width="100%" height="100%" viewBox="0 0 128 128" version="1.1" xmlns="http://www.w3.org/2000/svg" xmlns:xlink="http://www.w3.org/1999/xlink" xml:space="preserve" xmlns:serif="http://www.serif.com/" style="fill-rule:evenodd;clip-rule:evenodd;stroke-linejoin:round;stroke-miterlimit:2;"><g id="Type0-Noplus"><g><path d="M80.558,29.939l23.812,0c9.663,0 17.508,7.845 17.508,17.508l0,61.325c0,9.663 -7.845,17.508 -17.508,17.508l-80.74,-0c-9.663,-0 -17.508,-7.845 -17.508,-17.508l-0,-61.325c-0,-9.663 7.845,-17.508 17.508,-17.508l22.962,0l-18.568,-20.263c-1.77,-1.932 -1.639,-4.939 0.293,-6.709c1.933,-1.771 4.939,-1.64 6.709,0.293l23.824,25.999c0.197,0.214 0.37,0.442 0.52,0.68l8.412,0c0.15,-0.239 0.324,-0.468 0.522,-0.684l23.82,-25.995c1.77,-1.933 4.777,-2.064 6.709,-0.293c1.932,1.77 2.063,4.777 0.293,6.709l-18.568,20.263Zm34.033,17.508c0,-5.641 -4.58,-10.221 -10.221,-10.221l-80.74,0c-5.641,0 -10.221,4.58 -10.221,10.221l-0,61.325c-0,5.641 4.58,10.221 10.221,10.221l80.74,-0c5.641,-0 10.221,-4.58 10.221,-10.221l0,-61.325Z" style="fill:url(#_Linear1);"/><path d="M80.558,29.939l23.812,0c9.663,0 17.508,7.845 17.508,17.508l0,61.325c0,9.663 -7.845,17.508 -17.508,17.508l-80.74,-0c-9.663,-0 -17.508,-7.845 -17.508,-17.508l-0,-61.325c-0,-9.663 7.845,-17.508 17.508,-17.508l22.962,0l-18.568,-20.263c-1.77,-1.932 -1.639,-4.939 0.293,-6.709c1.933,-1.771 4.939,-1.64 6.709,0.293l23.824,25.999c0.197,0.214 0.37,0.442 0.52,0.68l8.412,0c0.15,-0.239 0.324,-0.468 0.522,-0.684l23.82,-25.995c1.77,-1.933 4.777,-2.064 6.709,-0.293c1.932,1.77 2.063,4.777 0.293,6.709l-18.568,20.263Zm34.033,17.508c0,-5.641 -4.58,-10.221 -10.221,-10.221l-80.74,0c-5.641,0 -10.221,4.58 -10.221,10.221l-0,61.325c-0,5.641 4.58,10.221 10.221,10.221l80.74,-0c5.641,-0 10.221,-4.58 10.221,-10.221l0,-61.325Z" style="fill:url(#_Linear2);"/><path d="M114.591,47.447l0,61.325c0,5.641 -4.58,10.221 -10.221,10.221l-80.74,-0c-5.641,-0 -10.221,-4.58 -10.221,-10.221l-0,-61.325c-0,-5.641 4.58,-10.221 10.221,-10.221l80.74,0c5.641,0 10.221,4.58 10.221,10.221Z" style="fill:#fff;"/><path d="M114.591,47.447l0,61.325c0,5.641 -4.58,10.221 -10.221,10.221l-80.74,-0c-5.641,-0 -10.221,-4.58 -10.221,-10.221l-0,-61.325c-0,-5.641 4.58,-10.221 10.221,-10.221l80.74,0c5.641,0 10.221,4.58 10.221,10.221Z" style="fill:#fff;"/><path d="M40.931,97.779c-3.776,-5.028 -6.029,-11.519 -6.029,-18.724c-0,-14.292 13.86,-28.391 28.777,-28.397c30.351,-0.012 28.745,-0.099 28.777,2.117c0.11,7.622 -0.019,16.593 -0.019,25.637c-0,16.507 -15.948,29.909 -30.83,29.909c-5.423,0 -10.44,-1.694 -14.627,-4.648l-6.371,6.953c-1.738,1.897 -4.544,2.159 -6.261,0.585c-1.718,-1.574 -1.701,-4.392 0.037,-6.289l6.546,-7.143Zm10.592,0.937c2.936,1.886 6.368,2.959 10.084,2.959c11.626,0 24.184,-10.367 24.184,-23.263c-0,-7.237 0.083,-14.427 0.06,-20.911c-4.16,-0.089 -11.558,-0.201 -22.169,-0.197c-11.45,0.004 -22.134,10.78 -22.134,21.751c-0,5.173 1.468,9.913 3.985,13.702l18.494,-20.183c1.739,-1.897 4.544,-2.16 6.262,-0.586c1.718,1.574 1.701,4.392 -0.038,6.289l-18.728,20.439Z" style="fill:url(#_Linear3);"/></g><path d="M40.931,97.779c-3.776,-5.028 -6.029,-11.519 -6.029,-18.724c-0,-14.292 13.86,-28.391 28.777,-28.397c30.351,-0.012 28.745,-0.099 28.777,2.117c0.11,7.622 -0.019,16.593 -0.019,25.637c-0,16.507 -15.948,29.909 -30.83,29.909c-5.423,0 -10.44,-1.694 -14.627,-4.648l-6.371,6.953c-1.738,1.897 -4.544,2.159 -6.261,0.585c-1.718,-1.574 -1.701,-4.392 0.037,-6.289l6.546,-7.143Zm10.592,0.937c2.936,1.886 6.368,2.959 10.084,2.959c11.626,0 24.184,-10.367 24.184,-23.263c-0,-7.237 0.083,-14.427 0.06,-20.911c-4.16,-0.089 -11.558,-0.201 -22.169,-0.197c-11.45,0.004 -22.134,10.78 -22.134,21.751c-0,5.173 1.468,9.913 3.985,13.702l18.494,-20.183c1.739,-1.897 4.544,-2.16 6.262,-0.586c1.718,1.574 1.701,4.392 -0.038,6.289l-18.728,20.439Z" style="fill:url(#_Linear4);"/></g><defs><linearGradient id="_Linear1" x1="0" y1="0" x2="1" y2="0" gradientUnits="userSpaceOnUse" gradientTransform="matrix(137.707,-135.333,126.827,129.052,-2.49073,131.577)"><stop offset="0" style="stop-color:#00aa38;stop-opacity:1"/><stop offset="1" style="stop-color:#00efdc;stop-opacity:1"/></linearGradient><linearGradient id="_Linear2" x1="0" y1="0" x2="1" y2="0" gradientUnits="userSpaceOnUse" gradientTransform="matrix(137.707,-135.333,126.827,129.052,-2.49073,131.577)"><stop offset="0" style="stop-color:#00aa38;stop-opacity:1"/><stop offset="1" style="stop-color:#00efdc;stop-opacity:1"/></linearGradient><linearGradient id="_Linear3" x1="0" y1="0" x2="1" y2="0" gradientUnits="userSpaceOnUse" gradientTransform="matrix(0.506151,-61.7119,37.9843,0.31154,83.7115,112.366)"><stop offset="0" style="stop-color:#008686;stop-opacity:1"/><stop offset="1" style="stop-color:#00b66b;stop-opacity:1"/></linearGradient><linearGradient id="_Linear4" x1="0" y1="0" x2="1" y2="0" gradientUnits="userSpaceOnUse" gradientTransform="matrix(0.506151,-61.7119,37.9843,0.31154,83.7115,112.366)"><stop offset="0" style="stop-color:#008686;stop-opacity:1"/><stop offset="1" style="stop-color:#00b66b;stop-opacity:1"/></linearGradient></defs></svg>