<?xml version="1.0" encoding="UTF-8" standalone="no"?>
<!DOCTYPE svg PUBLIC "-//W3C//DTD SVG 1.1//EN" "http://www.w3.org/Graphics/SVG/1.1/DTD/svg11.dtd">
<svg width="100%" height="100%" viewBox="0 0 1024 768" version="1.1" xmlns="http://www.w3.org/2000/svg" xmlns:xlink="http://www.w3.org/1999/xlink" xml:space="preserve" xmlns:serif="http://www.serif.com/" style="fill-rule:evenodd;clip-rule:evenodd;stroke-linejoin:round;stroke-miterlimit:2;">
    <g>
        <g transform="matrix(1,0,0,0.818182,0,5.81818)">
            <g transform="matrix(1.06452,0,0,1.83333,-2.06452,-26.6667)">
                <path d="M1024,53.333L1024,202.667C1024,214.441 1010.53,224 993.939,224L62.061,224C45.47,224 32,214.441 32,202.667L32,53.333C32,41.559 45.47,32 62.061,32L993.939,32C1010.53,32 1024,41.559 1024,53.333Z" style="fill:var(--bgcolor2,#ebebeb);"/>
                <path d="M1024,53.333L1024,202.667C1024,214.441 1010.53,224 993.939,224L62.061,224C45.47,224 32,214.441 32,202.667L32,53.333C32,41.559 45.47,32 62.061,32L993.939,32C1010.53,32 1024,41.559 1024,53.333ZM1016.49,53.333C1016.49,44.503 1006.38,37.333 993.939,37.333L62.061,37.333C49.617,37.333 39.515,44.503 39.515,53.333L39.515,202.667C39.515,211.497 49.617,218.667 62.061,218.667L993.939,218.667C1006.38,218.667 1016.49,211.497 1016.49,202.667L1016.49,53.333Z" style="fill:var(--textcolor3,#bebebe);"/>
            </g>
            <g transform="matrix(0.846154,0,0,1.22222,41.8462,32)">
                <path d="M896,96C896,113.661 879.054,128 858.182,128L101.818,128C80.946,128 64,113.661 64,96C64,78.339 80.946,64 101.818,64L858.182,64C879.054,64 896,78.339 896,96Z" style="fill:var(--textcolor3,#bebebe);"/>
            </g>
            <g transform="matrix(0.976271,0,0,0.611111,2.27797,129.778)">
                <path d="M391,256C391,273.661 383.656,288 374.611,288L112.389,288C103.344,288 96,273.661 96,256C96,238.339 103.344,224 112.389,224L374.611,224C383.656,224 391,238.339 391,256Z" style="fill:var(--textcolor3,#bebebe);"/>
            </g>
        </g>
        <g transform="matrix(1,0,0,0.818182,0,325.818)">
            <g transform="matrix(1.06452,0,0,1.83333,-2.06452,-26.6667)">
                <path d="M1024,53.333L1024,202.667C1024,214.441 1010.53,224 993.939,224L62.061,224C45.47,224 32,214.441 32,202.667L32,53.333C32,41.559 45.47,32 62.061,32L993.939,32C1010.53,32 1024,41.559 1024,53.333Z" style="fill:var(--bgcolor2,#ebebeb);"/>
                <path d="M1024,53.333L1024,202.667C1024,214.441 1010.53,224 993.939,224L62.061,224C45.47,224 32,214.441 32,202.667L32,53.333C32,41.559 45.47,32 62.061,32L993.939,32C1010.53,32 1024,41.559 1024,53.333ZM1016.49,53.333C1016.49,44.503 1006.38,37.333 993.939,37.333L62.061,37.333C49.617,37.333 39.515,44.503 39.515,53.333L39.515,202.667C39.515,211.497 49.617,218.667 62.061,218.667L993.939,218.667C1006.38,218.667 1016.49,211.497 1016.49,202.667L1016.49,53.333Z" style="fill:var(--textcolor3,#bebebe);"/>
            </g>
            <g transform="matrix(0.846154,0,0,1.22222,41.8462,32)">
                <path d="M896,96C896,113.661 879.054,128 858.182,128L101.818,128C80.946,128 64,113.661 64,96C64,78.339 80.946,64 101.818,64L858.182,64C879.054,64 896,78.339 896,96Z" style="fill:var(--textcolor3,#bebebe);"/>
            </g>
            <g transform="matrix(0.976271,0,0,0.611111,2.27797,129.778)">
                <path d="M391,256C391,273.661 383.656,288 374.611,288L112.389,288C103.344,288 96,273.661 96,256C96,238.339 103.344,224 112.389,224L374.611,224C383.656,224 391,238.339 391,256Z" style="fill:var(--textcolor3,#bebebe);"/>
            </g>
        </g>
        <g transform="matrix(1,0,0,0.818182,0,645.818)">
            <g transform="matrix(1.06452,0,0,1.83333,-2.06452,-26.6667)">
                <path d="M1024,53.333L1024,202.667C1024,214.441 1010.53,224 993.939,224L62.061,224C45.47,224 32,214.441 32,202.667L32,53.333C32,41.559 45.47,32 62.061,32L993.939,32C1010.53,32 1024,41.559 1024,53.333Z" style="fill:var(--bgcolor2,#ebebeb);"/>
                <path d="M1024,53.333L1024,202.667C1024,214.441 1010.53,224 993.939,224L62.061,224C45.47,224 32,214.441 32,202.667L32,53.333C32,41.559 45.47,32 62.061,32L993.939,32C1010.53,32 1024,41.559 1024,53.333ZM1016.49,53.333C1016.49,44.503 1006.38,37.333 993.939,37.333L62.061,37.333C49.617,37.333 39.515,44.503 39.515,53.333L39.515,202.667C39.515,211.497 49.617,218.667 62.061,218.667L993.939,218.667C1006.38,218.667 1016.49,211.497 1016.49,202.667L1016.49,53.333Z" style="fill:var(--textcolor3,#bebebe);"/>
            </g>
            <g transform="matrix(0.846154,0,0,1.22222,41.8462,32)">
                <path d="M896,96C896,113.661 879.054,128 858.182,128L101.818,128C80.946,128 64,113.661 64,96C64,78.339 80.946,64 101.818,64L858.182,64C879.054,64 896,78.339 896,96Z" style="fill:var(--textcolor3,#bebebe);"/>
            </g>
        </g>
    </g>
</svg>
