<?xml version="1.0" encoding="UTF-8" standalone="no"?>
<!DOCTYPE svg PUBLIC "-//W3C//DTD SVG 1.1//EN" "http://www.w3.org/Graphics/SVG/1.1/DTD/svg11.dtd">
<svg width="100%" height="100%" viewBox="0 0 1024 768" version="1.1" xmlns="http://www.w3.org/2000/svg" xmlns:xlink="http://www.w3.org/1999/xlink" xml:space="preserve" xmlns:serif="http://www.serif.com/" style="fill-rule:evenodd;clip-rule:evenodd;stroke-linejoin:round;stroke-miterlimit:2;">
    <g>
        <g>
            <g transform="matrix(1,0,0,1,0,192)">
                <g transform="matrix(0.666667,0,0,0.666667,10.6667,10.6667)">
                    <path d="M128,32C180.984,32 224,75.016 224,128C224,180.984 180.984,224 128,224C75.016,224 32,180.984 32,128C32,75.016 75.016,32 128,32ZM128,56C88.262,56 56,88.262 56,128C56,167.738 88.262,200 128,200C167.738,200 200,167.738 200,128C200,88.262 167.738,56 128,56Z" style="fill:var(--textcolor3,#bebebe);"/>
                </g>
                <g transform="matrix(1.31579,0,0,0.375,-355.368,48)">
                    <path d="M1024,128C1024,163.323 1015.83,192 1005.76,192L434.24,192C424.173,192 416,163.323 416,128C416,92.677 424.173,64 434.24,64L1005.76,64C1015.83,64 1024,92.677 1024,128Z" style="fill:var(--textcolor3,#bebebe);"/>
                </g>
            </g>
            <g>
                <g transform="matrix(1,0,0,0.75,0,0)">
                    <rect x="0" y="0" width="1024" height="256" style="fill:var(--bgcolor2,#ebebeb);"/>
                </g>
                <g transform="matrix(0.666667,0,0,0.666667,10.6667,10.6667)">
                    <path d="M128,32C180.984,32 224,75.016 224,128C224,180.984 180.984,224 128,224C75.016,224 32,180.984 32,128C32,75.016 75.016,32 128,32ZM128,56C88.262,56 56,88.262 56,128C56,167.738 88.262,200 128,200C167.738,200 200,167.738 200,128C200,88.262 167.738,56 128,56Z" style="fill:var(--textcolor3,#bebebe);"/>
                </g>
                <g transform="matrix(1.31579,0,0,0.375,-355.368,48)">
                    <path d="M1024,128C1024,163.323 1015.83,192 1005.76,192L434.24,192C424.173,192 416,163.323 416,128C416,92.677 424.173,64 434.24,64L1005.76,64C1015.83,64 1024,92.677 1024,128Z" style="fill:var(--textcolor3,#bebebe);"/>
                </g>
            </g>
        </g>
        <g transform="matrix(1,0,0,1,0,384)">
            <g transform="matrix(1,0,0,1,0,192)">
                <g transform="matrix(0.666667,0,0,0.666667,10.6667,10.6667)">
                    <path d="M128,32C180.984,32 224,75.016 224,128C224,180.984 180.984,224 128,224C75.016,224 32,180.984 32,128C32,75.016 75.016,32 128,32ZM128,56C88.262,56 56,88.262 56,128C56,167.738 88.262,200 128,200C167.738,200 200,167.738 200,128C200,88.262 167.738,56 128,56Z" style="fill:var(--textcolor3,#bebebe);"/>
                </g>
                <g transform="matrix(1.31579,0,0,0.375,-355.368,48)">
                    <path d="M1024,128C1024,163.323 1015.83,192 1005.76,192L434.24,192C424.173,192 416,163.323 416,128C416,92.677 424.173,64 434.24,64L1005.76,64C1015.83,64 1024,92.677 1024,128Z" style="fill:var(--textcolor3,#bebebe);"/>
                </g>
            </g>
            <g>
                <g transform="matrix(1,0,0,0.75,0,0)">
                    <rect x="0" y="0" width="1024" height="256" style="fill:var(--bgcolor2,#ebebeb);"/>
                </g>
                <g transform="matrix(0.666667,0,0,0.666667,10.6667,10.6667)">
                    <path d="M128,32C180.984,32 224,75.016 224,128C224,180.984 180.984,224 128,224C75.016,224 32,180.984 32,128C32,75.016 75.016,32 128,32ZM128,56C88.262,56 56,88.262 56,128C56,167.738 88.262,200 128,200C167.738,200 200,167.738 200,128C200,88.262 167.738,56 128,56Z" style="fill:var(--textcolor3,#bebebe);"/>
                </g>
                <g transform="matrix(1.31579,0,0,0.375,-355.368,48)">
                    <path d="M1024,128C1024,163.323 1015.83,192 1005.76,192L434.24,192C424.173,192 416,163.323 416,128C416,92.677 424.173,64 434.24,64L1005.76,64C1015.83,64 1024,92.677 1024,128Z" style="fill:var(--textcolor3,#bebebe);"/>
                </g>
            </g>
        </g>
    </g>
</svg>
