<?xml version="1.0" encoding="UTF-8" standalone="no"?><!DOCTYPE svg PUBLIC "-//W3C//DTD SVG 1.1//EN" "http://www.w3.org/Graphics/SVG/1.1/DTD/svg11.dtd">
<svg width="100%" height="100%" viewBox="0 0 1024 768" version="1.1"
    xmlns="http://www.w3.org/2000/svg"
    xmlns:xlink="http://www.w3.org/1999/xlink" xml:space="preserve"
    xmlns:serif="http://www.serif.com/" style="fill-rule:evenodd;clip-rule:evenodd;stroke-linejoin:round;stroke-miterlimit:2;">
    <g>
        <g>
            <path d="M688,160l0,371.765c0,8.83 -7.169,16 -16,16l-624,-0c-8.831,-0 -16,-7.17 -16,-16l0,-371.765c0,-8.831 7.169,-16 16,-16l624,0c8.831,0 16,7.169 16,16Z" style="fill:var(--bgcolor2,#fff);"/>
            <path d="M688,160l0,371.765c0,8.83 -7.169,16 -16,16l-624,-0c-8.831,-0 -16,-7.17 -16,-16l0,-371.765c0,-8.831 7.169,-16 16,-16l624,0c8.831,0 16,7.169 16,16Zm-4,-0c0,-6.623 -5.377,-12 -12,-12l-624,0c-6.623,0 -12,5.377 -12,12l0,371.765c0,6.623 5.377,12 12,12l624,-0c6.623,-0 12,-5.377 12,-12l0,-371.765Z" style="fill:#70b9d8;"/>
            <path d="M688,592l0,32c0,8.831 -7.169,16 -16,16l-624,0c-8.831,0 -16,-7.169 -16,-16l0,-32c0,-8.831 7.169,-16 16,-16l624,0c8.831,0 16,7.169 16,16Z" style="fill:var(--bgcolor2,#fff);"/>
            <path d="M688,592l0,32c0,8.831 -7.169,16 -16,16l-624,0c-8.831,0 -16,-7.169 -16,-16l0,-32c0,-8.831 7.169,-16 16,-16l624,0c8.831,0 16,7.169 16,16Zm-4,0c0,-6.623 -5.377,-12 -12,-12l-624,0c-6.623,0 -12,5.377 -12,12l0,32c0,6.623 5.377,12 12,12l624,0c6.623,0 12,-5.377 12,-12l0,-32Z" style="fill:var(--accent1, #bebebe);"/>
            <path d="M688,688c0,8.831 -7.169,16 -16,16l-624,-0c-8.831,-0 -16,-7.169 -16,-16c0,-8.831 7.169,-16 16,-16l624,0c8.831,0 16,7.169 16,16Z" style="fill:var(--bgcolor2,#fff);"/>
            <path d="M688,688c0,8.831 -7.169,16 -16,16l-624,-0c-8.831,-0 -16,-7.169 -16,-16c0,-8.831 7.169,-16 16,-16l624,0c8.831,0 16,7.169 16,16Zm-4,0c0,-6.623 -5.377,-12 -12,-12l-624,0c-6.623,0 -12,5.377 -12,12c0,6.623 5.377,12 12,12l624,-0c6.623,-0 12,-5.377 12,-12Z" style="fill:var(--accent1, #bebebe);"/>
            <path d="M992,160l0,528c0,8.831 -7.169,16 -16,16l-240,0c-8.831,0 -16,-7.169 -16,-16l0,-528c0,-8.831 7.169,-16 16,-16l240,0c8.831,0 16,7.169 16,16Z" style="fill:var(--bgcolor2,#fff);"/>
            <path d="M992,160l0,528c0,8.831 -7.169,16 -16,16l-240,0c-8.831,0 -16,-7.169 -16,-16l0,-528c0,-8.831 7.169,-16 16,-16l240,0c8.831,0 16,7.169 16,16Zm-4,0c0,-6.623 -5.377,-12 -12,-12l-240,0c-6.623,0 -12,5.377 -12,12l0,528c0,6.623 5.377,12 12,12l240,0c6.623,0 12,-5.377 12,-12l0,-528Z" style="fill:var(--accent1, #bebebe);"/>
            <path d="M401.689,341.789c2.71,1.355 4.422,4.125 4.422,7.155c0,3.03 -1.712,5.801 -4.422,7.156c-22.444,11.222 -65.485,32.742 -86.111,43.055c-2.48,1.24 -5.425,1.108 -7.784,-0.35c-2.358,-1.457 -3.794,-4.032 -3.794,-6.805c0,-21.554 0,-64.557 0,-86.111c0,-2.773 1.436,-5.348 3.794,-6.806c2.359,-1.457 5.304,-1.59 7.784,-0.35c20.626,10.313 63.667,31.834 86.111,43.056Z" style="fill:var(--textcolor2,#ededed);"/>
            <path d="M401.689,341.789c2.71,1.355 4.422,4.125 4.422,7.155c0,3.03 -1.712,5.801 -4.422,7.156l-86.111,43.055c-2.48,1.24 -5.425,1.108 -7.784,-0.35c-2.358,-1.457 -3.794,-4.032 -3.794,-6.805l0,-86.111c0,-2.773 1.436,-5.348 3.794,-6.806c2.359,-1.457 5.304,-1.59 7.784,-0.35l86.111,43.056Zm-1.789,3.578l-86.111,-43.056c-1.24,-0.62 -2.713,-0.554 -3.892,0.175c-1.179,0.729 -1.897,2.016 -1.897,3.403l0,86.111c0,1.386 0.718,2.674 1.897,3.403c1.179,0.728 2.652,0.795 3.892,0.175l86.111,-43.056c1.355,-0.678 2.211,-2.063 2.211,-3.578c0,-1.515 -0.856,-2.9 -2.211,-3.577Z" style="fill:var(--textcolor3,#e3e3e3);"/>
            <path d="M752,48c0,8.831 -7.169,16 -16,16l-688,-0c-8.831,-0 -16,-7.169 -16,-16c-0,-8.831 7.169,-16 16,-16l688,-0c8.831,-0 16,7.169 16,16Z" style="fill:var(--accent1, #bebebe);"/>
            <path d="M752,48c0,8.831 -7.169,16 -16,16l-688,-0c-8.831,-0 -16,-7.169 -16,-16c-0,-8.831 7.169,-16 16,-16l688,0c8.831,0 16,7.169 16,16Zm-2,-0c0,-7.727 -6.273,-14 -14,-14l-688,-0c-7.727,-0 -14,6.273 -14,14c-0,7.727 6.273,14 14,14l688,-0c7.727,-0 14,-6.273 14,-14Z" style="fill:var(--accent1, #bebebe);"/>
            <path d="M640,104c0,4.415 -3.585,8 -8,8l-592,0c-4.415,0 -8,-3.585 -8,-8c0,-4.415 3.585,-8 8,-8l592,0c4.415,0 8,3.585 8,8Z" style="fill:var(--accent1, #bebebe);"/>
            <path d="M640,104c-0,4.415 -3.585,8 -8,8l-592,0c-4.415,0 -8,-3.585 -8,-8c0,-4.415 3.585,-8 8,-8l592,0c4.415,0 8,3.585 8,8Zm-2,0c0,-3.311 -2.689,-6 -6,-6l-592,0c-3.311,0 -6,2.689 -6,6c0,3.311 2.689,6 6,6l592,0c3.311,0 6,-2.689 6,-6Z" style="fill:var(--accent1, #bebebe);"/>
            <path d="M992,48c0,8.831 -7.169,16 -16,16l-176,0c-8.831,0 -16,-7.169 -16,-16c0,-8.831 7.169,-16 16,-16l176,0c8.831,0 16,7.169 16,16Z" style="fill:var(--bgcolor2,#fff);"/>
            <path d="M992,48c0,8.831 -7.169,16 -16,16l-176,0c-8.831,0 -16,-7.169 -16,-16c0,-8.831 7.169,-16 16,-16l176,0c8.831,0 16,7.169 16,16Zm-4,0c0,-6.623 -5.377,-12 -12,-12l-176,0c-6.623,0 -12,5.377 -12,12c0,6.623 5.377,12 12,12l176,0c6.623,0 12,-5.377 12,-12Z" style="fill:var(--accent1, #bebebe);"/>
            <g>
                <path d="M176,736l-0,32l-144,0l0,-32c0,-8.831 6.452,-16 14.4,-16l115.2,0c7.948,0 14.4,7.169 14.4,16Z" style="fill:var(--bgcolor2,#fff);"/>
                <path d="M176,736l-0,32l-144,0l0,-32c0,-8.831 6.452,-16 14.4,-16l115.2,0c7.948,0 14.4,7.169 14.4,16Zm-4,-0c-0,-6.514 -4.537,-12 -10.4,-12l-115.2,0c-5.863,0 -10.4,5.486 -10.4,12l0,28l136,0l-0,-28Z" style="fill:var(--accent1, #bebebe);"/>
                <path d="M352,736l-0,32l-144,0l0,-32c0,-8.831 6.452,-16 14.4,-16l115.2,0c7.948,0 14.4,7.169 14.4,16Z" style="fill:var(--bgcolor2,#fff);"/>
                <path d="M352,736l-0,32l-144,0l0,-32c0,-8.831 6.452,-16 14.4,-16l115.2,0c7.948,0 14.4,7.169 14.4,16Zm-4,-0c-0,-6.514 -4.537,-12 -10.4,-12l-115.2,0c-5.863,0 -10.4,5.486 -10.4,12l-0,28l136,0l-0,-28Z" style="fill:var(--accent1, #bebebe);"/>
                <path d="M528,736l-0,32l-144,0l0,-32c0,-8.831 6.452,-16 14.4,-16l115.2,0c7.948,0 14.4,7.169 14.4,16Z" style="fill:var(--bgcolor2,#fff);"/>
                <path d="M528,736l-0,32l-144,0l0,-32c0,-8.831 6.452,-16 14.4,-16l115.2,0c7.948,0 14.4,7.169 14.4,16Zm-4,0c0,-6.514 -4.537,-12 -10.4,-12l-115.2,0c-5.863,0 -10.4,5.486 -10.4,12l-0,28l136,0l0,-28Z" style="fill:var(--accent1, #bebebe);"/>
                <path d="M704,736l-0,32l-144,0l0,-32c0,-8.831 6.452,-16 14.4,-16l115.2,0c7.948,0 14.4,7.169 14.4,16Z" style="fill:var(--bgcolor2,#fff);"/>
                <path d="M704,736l-0,32l-144,0l0,-32c0,-8.831 6.452,-16 14.4,-16l115.2,0c7.948,0 14.4,7.169 14.4,16Zm-4,-0c-0,-6.514 -4.537,-12 -10.4,-12l-115.2,0c-5.863,0 -10.4,5.486 -10.4,12l-0,28l136,0l-0,-28Z" style="fill:var(--accent1, #bebebe);"/>
                <path d="M880,736l-0,32l-144,0l0,-32c0,-8.831 6.452,-16 14.4,-16l115.2,0c7.948,0 14.4,7.169 14.4,16Z" style="fill:var(--bgcolor2,#fff);"/>
                <path d="M880,736l-0,32l-144,0l0,-32c0,-8.831 6.452,-16 14.4,-16l115.2,0c7.948,0 14.4,7.169 14.4,16Zm-4,0c-0,-6.514 -4.537,-12 -10.4,-12l-115.2,0c-5.863,0 -10.4,5.486 -10.4,12l0,28l136,0l-0,-28Z" style="fill:var(--accent1, #bebebe);"/>
                <path d="M1024,720l-0,48l-112,0l0,-32c0,-8.831 5.019,-16 11.2,-16l100.8,0Z" style="fill:var(--bgcolor2,#fff);"/>
                <path d="M1024,720l-0,48l-112,0l-0,-32c-0,-8.831 5.019,-16 11.2,-16l100.8,0Zm-4,4l-96.8,0c-1.853,0 -3.426,1.246 -4.641,2.982c-1.614,2.305 -2.559,5.504 -2.559,9.018l-0,28l104,-0l-0,-40Z" style="fill:var(--accent1, #bebebe);"/>
            </g>
        </g>
        <g>
            <path d="M688,160l0,371.765c0,8.83 -7.169,16 -16,16l-624,-0c-8.831,-0 -16,-7.17 -16,-16l0,-371.765c0,-8.831 7.169,-16 16,-16l624,0c8.831,0 16,7.169 16,16Z" style="fill:var(--bgcolor2,#fff);"/>
            <path d="M688,160l0,371.765c0,8.83 -7.169,16 -16,16l-624,-0c-8.831,-0 -16,-7.17 -16,-16l0,-371.765c0,-8.831 7.169,-16 16,-16l624,0c8.831,0 16,7.169 16,16Zm-4,-0c0,-6.623 -5.377,-12 -12,-12l-624,0c-6.623,0 -12,5.377 -12,12l0,371.765c0,6.623 5.377,12 12,12l624,-0c6.623,-0 12,-5.377 12,-12l0,-371.765Z" style="fill:#70b9d8;"/>
            <path d="M688,592l0,32c0,8.831 -7.169,16 -16,16l-624,0c-8.831,0 -16,-7.169 -16,-16l0,-32c0,-8.831 7.169,-16 16,-16l624,0c8.831,0 16,7.169 16,16Z" style="fill:var(--bgcolor2,#fff);"/>
            <path d="M688,592l0,32c0,8.831 -7.169,16 -16,16l-624,0c-8.831,0 -16,-7.169 -16,-16l0,-32c0,-8.831 7.169,-16 16,-16l624,0c8.831,0 16,7.169 16,16Zm-4,0c0,-6.623 -5.377,-12 -12,-12l-624,0c-6.623,0 -12,5.377 -12,12l0,32c0,6.623 5.377,12 12,12l624,0c6.623,0 12,-5.377 12,-12l0,-32Z" style="fill:var(--accent1, #bebebe);"/>
            <path d="M688,688c0,8.831 -7.169,16 -16,16l-624,-0c-8.831,-0 -16,-7.169 -16,-16c0,-8.831 7.169,-16 16,-16l624,0c8.831,0 16,7.169 16,16Z" style="fill:var(--bgcolor2,#fff);"/>
            <path d="M688,688c0,8.831 -7.169,16 -16,16l-624,-0c-8.831,-0 -16,-7.169 -16,-16c0,-8.831 7.169,-16 16,-16l624,0c8.831,0 16,7.169 16,16Zm-4,0c0,-6.623 -5.377,-12 -12,-12l-624,0c-6.623,0 -12,5.377 -12,12c0,6.623 5.377,12 12,12l624,-0c6.623,-0 12,-5.377 12,-12Z" style="fill:var(--accent1, #bebebe);"/>
            <path d="M992,160l0,528c0,8.831 -7.169,16 -16,16l-240,0c-8.831,0 -16,-7.169 -16,-16l0,-528c0,-8.831 7.169,-16 16,-16l240,0c8.831,0 16,7.169 16,16Z" style="fill:var(--bgcolor2,#fff);"/>
            <path d="M992,160l0,528c0,8.831 -7.169,16 -16,16l-240,0c-8.831,0 -16,-7.169 -16,-16l0,-528c0,-8.831 7.169,-16 16,-16l240,0c8.831,0 16,7.169 16,16Zm-4,0c0,-6.623 -5.377,-12 -12,-12l-240,0c-6.623,0 -12,5.377 -12,12l0,528c0,6.623 5.377,12 12,12l240,0c6.623,0 12,-5.377 12,-12l0,-528Z" style="fill:var(--accent1, #bebebe);"/>
            <path d="M401.689,341.789c2.71,1.355 4.422,4.125 4.422,7.155c0,3.03 -1.712,5.801 -4.422,7.156c-22.444,11.222 -65.485,32.742 -86.111,43.055c-2.48,1.24 -5.425,1.108 -7.784,-0.35c-2.358,-1.457 -3.794,-4.032 -3.794,-6.805c0,-21.554 0,-64.557 0,-86.111c0,-2.773 1.436,-5.348 3.794,-6.806c2.359,-1.457 5.304,-1.59 7.784,-0.35c20.626,10.313 63.667,31.834 86.111,43.056Z" style="fill:var(--textcolor2,#ededed);"/>
            <path d="M401.689,341.789c2.71,1.355 4.422,4.125 4.422,7.155c0,3.03 -1.712,5.801 -4.422,7.156l-86.111,43.055c-2.48,1.24 -5.425,1.108 -7.784,-0.35c-2.358,-1.457 -3.794,-4.032 -3.794,-6.805l0,-86.111c0,-2.773 1.436,-5.348 3.794,-6.806c2.359,-1.457 5.304,-1.59 7.784,-0.35l86.111,43.056Zm-1.789,3.578l-86.111,-43.056c-1.24,-0.62 -2.713,-0.554 -3.892,0.175c-1.179,0.729 -1.897,2.016 -1.897,3.403l0,86.111c0,1.386 0.718,2.674 1.897,3.403c1.179,0.728 2.652,0.795 3.892,0.175l86.111,-43.056c1.355,-0.678 2.211,-2.063 2.211,-3.578c0,-1.515 -0.856,-2.9 -2.211,-3.577Z" style="fill:var(--textcolor3,#e3e3e3);"/>
            <path d="M752,48c0,8.831 -7.169,16 -16,16l-688,-0c-8.831,-0 -16,-7.169 -16,-16c-0,-8.831 7.169,-16 16,-16l688,-0c8.831,-0 16,7.169 16,16Z" style="fill:var(--accent1, #bebebe);"/>
            <path d="M752,48c0,8.831 -7.169,16 -16,16l-688,-0c-8.831,-0 -16,-7.169 -16,-16c-0,-8.831 7.169,-16 16,-16l688,0c8.831,0 16,7.169 16,16Zm-2,-0c0,-7.727 -6.273,-14 -14,-14l-688,-0c-7.727,-0 -14,6.273 -14,14c-0,7.727 6.273,14 14,14l688,-0c7.727,-0 14,-6.273 14,-14Z" style="fill:var(--accent1, #bebebe);"/>
            <path d="M640,104c0,4.415 -3.585,8 -8,8l-592,0c-4.415,0 -8,-3.585 -8,-8c0,-4.415 3.585,-8 8,-8l592,0c4.415,0 8,3.585 8,8Z" style="fill:var(--accent1, #bebebe);"/>
            <path d="M640,104c-0,4.415 -3.585,8 -8,8l-592,0c-4.415,0 -8,-3.585 -8,-8c0,-4.415 3.585,-8 8,-8l592,0c4.415,0 8,3.585 8,8Zm-2,0c0,-3.311 -2.689,-6 -6,-6l-592,0c-3.311,0 -6,2.689 -6,6c0,3.311 2.689,6 6,6l592,0c3.311,0 6,-2.689 6,-6Z" style="fill:var(--accent1, #bebebe);"/>
            <path d="M992,48c0,8.831 -7.169,16 -16,16l-176,0c-8.831,0 -16,-7.169 -16,-16c0,-8.831 7.169,-16 16,-16l176,0c8.831,0 16,7.169 16,16Z" style="fill:var(--bgcolor2,#fff);"/>
            <path d="M992,48c0,8.831 -7.169,16 -16,16l-176,0c-8.831,0 -16,-7.169 -16,-16c0,-8.831 7.169,-16 16,-16l176,0c8.831,0 16,7.169 16,16Zm-4,0c0,-6.623 -5.377,-12 -12,-12l-176,0c-6.623,0 -12,5.377 -12,12c0,6.623 5.377,12 12,12l176,0c6.623,0 12,-5.377 12,-12Z" style="fill:var(--accent1, #bebebe);"/>
            <g>
                <path d="M176,736l-0,32l-144,0l0,-32c0,-8.831 6.452,-16 14.4,-16l115.2,0c7.948,0 14.4,7.169 14.4,16Z" style="fill:var(--bgcolor2,#fff);"/>
                <path d="M176,736l-0,32l-144,0l0,-32c0,-8.831 6.452,-16 14.4,-16l115.2,0c7.948,0 14.4,7.169 14.4,16Zm-4,-0c-0,-6.514 -4.537,-12 -10.4,-12l-115.2,0c-5.863,0 -10.4,5.486 -10.4,12l0,28l136,0l-0,-28Z" style="fill:var(--accent1, #bebebe);"/>
                <path d="M352,736l-0,32l-144,0l0,-32c0,-8.831 6.452,-16 14.4,-16l115.2,0c7.948,0 14.4,7.169 14.4,16Z" style="fill:var(--bgcolor2,#fff);"/>
                <path d="M352,736l-0,32l-144,0l0,-32c0,-8.831 6.452,-16 14.4,-16l115.2,0c7.948,0 14.4,7.169 14.4,16Zm-4,-0c-0,-6.514 -4.537,-12 -10.4,-12l-115.2,0c-5.863,0 -10.4,5.486 -10.4,12l-0,28l136,0l-0,-28Z" style="fill:var(--accent1, #bebebe);"/>
                <path d="M528,736l-0,32l-144,0l0,-32c0,-8.831 6.452,-16 14.4,-16l115.2,0c7.948,0 14.4,7.169 14.4,16Z" style="fill:var(--bgcolor2,#fff);"/>
                <path d="M528,736l-0,32l-144,0l0,-32c0,-8.831 6.452,-16 14.4,-16l115.2,0c7.948,0 14.4,7.169 14.4,16Zm-4,0c0,-6.514 -4.537,-12 -10.4,-12l-115.2,0c-5.863,0 -10.4,5.486 -10.4,12l-0,28l136,0l0,-28Z" style="fill:var(--accent1, #bebebe);"/>
                <path d="M704,736l-0,32l-144,0l0,-32c0,-8.831 6.452,-16 14.4,-16l115.2,0c7.948,0 14.4,7.169 14.4,16Z" style="fill:var(--bgcolor2,#fff);"/>
                <path d="M704,736l-0,32l-144,0l0,-32c0,-8.831 6.452,-16 14.4,-16l115.2,0c7.948,0 14.4,7.169 14.4,16Zm-4,-0c-0,-6.514 -4.537,-12 -10.4,-12l-115.2,0c-5.863,0 -10.4,5.486 -10.4,12l-0,28l136,0l-0,-28Z" style="fill:var(--accent1, #bebebe);"/>
                <path d="M880,736l-0,32l-144,0l0,-32c0,-8.831 6.452,-16 14.4,-16l115.2,0c7.948,0 14.4,7.169 14.4,16Z" style="fill:var(--bgcolor2,#fff);"/>
                <path d="M880,736l-0,32l-144,0l0,-32c0,-8.831 6.452,-16 14.4,-16l115.2,0c7.948,0 14.4,7.169 14.4,16Zm-4,0c-0,-6.514 -4.537,-12 -10.4,-12l-115.2,0c-5.863,0 -10.4,5.486 -10.4,12l0,28l136,0l-0,-28Z" style="fill:var(--accent1, #bebebe);"/>
                <path d="M1024,720l-0,48l-112,0l0,-32c0,-8.831 5.019,-16 11.2,-16l100.8,0Z" style="fill:var(--bgcolor2,#fff);"/>
                <path d="M1024,720l-0,48l-112,0l-0,-32c-0,-8.831 5.019,-16 11.2,-16l100.8,0Zm-4,4l-96.8,0c-1.853,0 -3.426,1.246 -4.641,2.982c-1.614,2.305 -2.559,5.504 -2.559,9.018l-0,28l104,-0l-0,-40Z" style="fill:var(--accent1, #bebebe);"/>
            </g>
        </g>
    </g>
</svg>