<?xml version="1.0" encoding="UTF-8" standalone="no"?>
<!DOCTYPE svg PUBLIC "-//W3C//DTD SVG 1.1//EN" "http://www.w3.org/Graphics/SVG/1.1/DTD/svg11.dtd">
<svg width="100%" height="100%" viewBox="0 0 32 32" version="1.1" xmlns="http://www.w3.org/2000/svg" xmlns:xlink="http://www.w3.org/1999/xlink" xml:space="preserve" xmlns:serif="http://www.serif.com/" style="fill-rule:evenodd;clip-rule:evenodd;stroke-linejoin:round;stroke-miterlimit:2;">
    <g transform="matrix(1,0,0,1,2.34096e-07,1)">
        <g transform="matrix(0.928571,0,0,0.923077,1.14286,-0.692308)">
            <path d="M15.462,5.083L3.077,5.083L3.077,17L0.923,17L0.923,2.917L15.462,2.917L15.462,5.083ZM16.761,2.917L27.269,2.917L25.116,5.083L18.915,5.083L16.761,2.917ZM31.077,6.747L31.077,17.317L28.923,15.151L28.923,8.913L31.077,6.747ZM31.077,18.625L31.077,31.083L17.077,31.083L17.077,28.917L28.923,28.917L28.923,18.625L31.077,18.625ZM17.392,5.083L16.538,5.083L16.538,4.224L17.392,5.083ZM28.792,2.917L31.077,2.917L31.077,5.215L28.923,7.381L28.923,5.083L26.639,5.083L28.792,2.917ZM28.923,17.542L28.923,16.683L29.777,17.542L28.923,17.542Z" style="fill:#f0f;"/>
        </g>
        <g transform="matrix(0.923944,0,0,0.908176,0.228169,2.47926)">
            <path d="M16,28.101L13.618,28.101L13.618,25.899L14.918,25.899L14.918,24.8L14.918,23.699L17.082,23.699L17.082,27C17.082,27.608 16.598,28.101 16,28.101ZM1.918,27L1.918,23.699L4.082,23.699L4.082,25.899L4.3,25.899L5.382,25.899L5.382,28.101L3,28.101C2.402,28.101 1.918,27.608 1.918,27ZM17.082,16L17.082,19.301L14.918,19.301L14.918,18.2L14.918,17.101L13.618,17.101L13.618,14.899L16,14.899C16.598,14.899 17.082,15.392 17.082,16ZM11.882,25.899L11.882,28.101L7.118,28.101L7.118,25.899L11.882,25.899ZM5.382,14.899L5.382,17.101L4.3,17.101L4.082,17.101L4.082,19.301L1.918,19.301L1.918,16C1.918,15.392 2.402,14.899 3,14.899L5.382,14.899ZM7.118,17.101L7.118,14.899L11.882,14.899L11.882,17.101L7.118,17.101Z" style="fill:#f0f;"/>
        </g>
        <g transform="matrix(-1,1.22465e-16,-1.22465e-16,-1,46.4146,18.2927)">
            <g transform="matrix(-1.75,5.04621e-31,4.79732e-31,-1.75,60.1646,30.2927)">
                <path d="M17,8L25,16L17,16L17,8Z" style="fill:#f0f;"/>
            </g>
            <g transform="matrix(0.920138,-0.920138,0.707107,0.707107,-3.52694,19.2637)">
                <path d="M23,12C23,13.104 22.311,14 21.463,14L13.537,14C12.689,14 12,13.104 12,12C12,10.896 12.689,10 13.537,10L21.463,10C22.311,10 23,10.896 23,12Z" style="fill:#f0f;"/>
            </g>
        </g>
    </g>
</svg>
