<?xml version="1.0" encoding="UTF-8" standalone="no"?>
<!DOCTYPE svg PUBLIC "-//W3C//DTD SVG 1.1//EN" "http://www.w3.org/Graphics/SVG/1.1/DTD/svg11.dtd">
<svg width="100%" height="100%" viewBox="0 0 32 32" version="1.1" xmlns="http://www.w3.org/2000/svg" xmlns:xlink="http://www.w3.org/1999/xlink" xml:space="preserve" xmlns:serif="http://www.serif.com/" style="fill-rule:evenodd;clip-rule:evenodd;stroke-linejoin:round;stroke-miterlimit:2;">
    <g>
        <g transform="matrix(2.82322,-2.82322,0.353553,0.353553,-66.2322,91.8683)">
            <path d="M28.125,8L32,8L32,10L28.125,10L28.125,40.941L27.875,40.941L27.875,10L24,10L24,8L27.875,8L27.875,-22.941L28.125,-22.941L28.125,8Z" style="fill:#f0f;"/>
        </g>
        <path d="M18,10.464L16,12.464L12.186,8.651L18,4L18,10.464ZM12.186,23.349L16,19.536L18,21.536L18,28L12.186,23.349ZM8.258,11.794L12.464,16L8.258,20.206L8,20L2,20L2,12L8,12L8.258,11.794Z" style="fill:#f0f;"/>
    </g>
</svg>
