<?xml version="1.0" encoding="UTF-8" standalone="no"?>
<!DOCTYPE svg PUBLIC "-//W3C//DTD SVG 1.1//EN" "http://www.w3.org/Graphics/SVG/1.1/DTD/svg11.dtd">
<svg width="100%" height="100%" viewBox="0 0 32 32" version="1.1" xmlns="http://www.w3.org/2000/svg" xmlns:xlink="http://www.w3.org/1999/xlink" xml:space="preserve" xmlns:serif="http://www.serif.com/" style="fill-rule:evenodd;clip-rule:evenodd;stroke-linejoin:round;stroke-miterlimit:2;">
    <g id="OpenVEFX">
        <g transform="matrix(1,0,0,1,-1,1)">
            <path d="M8,10L8,20L11,20L11,16L16,16L16,14L11,14L11,12L16,12L16,10L8,10Z" style="fill:#f0f;"/>
            <path d="M22,12.667L24,10L26,10L26,12L23.75,15L26,18L26,20L24,20L22,17.333L20,20L18,20L18,18L20.25,15L18,12L18,10L20,10L22,12.667Z" style="fill:#f0f;"/>
        </g>
        <g transform="matrix(1.75,0,0,1,-22.5,-2)">
            <path d="M24.286,30L14,30L14,27L24.286,27L24.286,24.5L28.857,24.5L28.857,27L30,27L30,30L28.857,30L28.857,32.5L24.286,32.5L24.286,30ZM27.714,26.5L25.429,26.5L25.429,30.5L27.714,30.5L27.714,26.5Z" style="fill:#f0f;"/>
        </g>
        <g transform="matrix(-1.75,0,0,1,54.5,-23)">
            <path d="M24.286,30L14,30L14,27L24.286,27L24.286,24.5L28.857,24.5L28.857,27L30,27L30,30L28.857,30L28.857,32.5L24.286,32.5L24.286,30ZM27.714,26.5L25.429,26.5L25.429,30.5L27.714,30.5L27.714,26.5Z" style="fill:#f0f;"/>
        </g>
    </g>
</svg>
