<?xml version="1.0" encoding="UTF-8" standalone="no"?>
<!DOCTYPE svg PUBLIC "-//W3C//DTD SVG 1.1//EN" "http://www.w3.org/Graphics/SVG/1.1/DTD/svg11.dtd">
<svg width="100%" height="100%" viewBox="0 0 32 32" version="1.1" xmlns="http://www.w3.org/2000/svg" xmlns:xlink="http://www.w3.org/1999/xlink" xml:space="preserve" xmlns:serif="http://www.serif.com/" style="fill-rule:evenodd;clip-rule:evenodd;stroke-linejoin:round;stroke-miterlimit:2;">
    <g id="Settings">
        <path d="M30,8L30,30L2,30L2,8L30,8ZM27,10L5,10L5,28L27,28L27,10Z" style="fill:#f0f;"/>
        <g transform="matrix(1,0,0,1,-3.74989e-12,1)">
            <path d="M17.157,10.084L17.373,11.749C18.111,11.911 18.813,12.202 19.449,12.609L20.779,11.585C21.401,12.048 21.952,12.599 22.415,13.221L21.391,14.551C21.798,15.187 22.089,15.889 22.251,16.627L23.916,16.843C24.028,17.61 24.028,18.39 23.916,19.157L22.251,19.373C22.089,20.111 21.798,20.813 21.391,21.449L22.415,22.779C21.952,23.401 21.401,23.952 20.779,24.415L19.449,23.391C18.813,23.798 18.111,24.089 17.373,24.251L17.157,25.916C16.39,26.028 15.61,26.028 14.843,25.916L14.627,24.251C13.889,24.089 13.187,23.798 12.551,23.391L11.221,24.415C10.599,23.952 10.048,23.401 9.585,22.779L10.609,21.449C10.202,20.813 9.911,20.111 9.749,19.373L8.084,19.157C7.972,18.39 7.972,17.61 8.084,16.843L9.749,16.627C9.911,15.889 10.202,15.187 10.609,14.551L9.585,13.221C10.048,12.599 10.599,12.048 11.221,11.585L12.551,12.609C13.187,12.202 13.889,11.911 14.627,11.749L14.843,10.084C15.61,9.972 16.39,9.972 17.157,10.084ZM11.495,18L11.702,18.944C11.814,19.451 12.014,19.934 12.294,20.371L12.815,21.185L13.629,21.706C14.066,21.986 14.549,22.186 15.056,22.298L16,22.505L16.944,22.298C17.451,22.186 17.934,21.986 18.371,21.706L19.185,21.185L19.706,20.371C19.986,19.934 20.186,19.451 20.298,18.944L20.505,18L20.298,17.056C20.186,16.549 19.986,16.066 19.706,15.629L19.185,14.815L18.371,14.294C17.934,14.014 17.451,13.814 16.944,13.702L16,13.495L15.056,13.702C14.549,13.814 14.066,14.014 13.629,14.294L12.815,14.815L12.294,15.629C12.014,16.066 11.814,16.549 11.702,17.056L11.495,18ZM16,15.165L16.57,15.223L17.104,15.389L17.586,15.651L18.004,15.996L18.349,16.414L18.611,16.896L18.777,17.43L18.835,18L18.777,18.57L18.611,19.104L18.349,19.586L18.004,20.004L17.586,20.349L17.104,20.611L16.57,20.777L16,20.835L15.43,20.777L14.896,20.611L14.414,20.349L13.996,20.004L13.651,19.586L13.389,19.104L13.223,18.57L13.165,18L13.223,17.43L13.389,16.896L13.651,16.414L13.996,15.996L14.414,15.651L14.896,15.389L15.43,15.223L16,15.165ZM16,19.165C16.643,19.165 17.165,18.643 17.165,18C17.165,17.357 16.643,16.835 16,16.835C15.357,16.835 14.835,17.357 14.835,18C14.835,18.643 15.357,19.165 16,19.165Z" style="fill:#f0f;"/>
        </g>
        <g transform="matrix(1.21548,-1.21548,0.353553,0.353553,-3.74101e-12,22.4645)">
            <rect x="12" y="2" width="6" height="4" style="fill:#f0f;"/>
        </g>
        <g transform="matrix(-1.21548,-1.21548,-0.353553,0.353553,32,22.4645)">
            <rect x="12" y="2" width="6" height="4" style="fill:#f0f;"/>
        </g>
    </g>
</svg>
