<?xml version="1.0" encoding="UTF-8" standalone="no"?>
<!DOCTYPE svg PUBLIC "-//W3C//DTD SVG 1.1//EN" "http://www.w3.org/Graphics/SVG/1.1/DTD/svg11.dtd">
<svg width="100%" height="100%" viewBox="0 0 32 32" version="1.1" xmlns="http://www.w3.org/2000/svg" xmlns:xlink="http://www.w3.org/1999/xlink" xml:space="preserve" xmlns:serif="http://www.serif.com/" style="fill-rule:evenodd;clip-rule:evenodd;stroke-linejoin:round;stroke-miterlimit:2;">
    <g id="StartTheater" transform="matrix(1,0,0,1,2,1.77636e-15)">
        <g transform="matrix(0.875,0,0,1,-1.75,-1.77636e-15)">
            <path d="M18,30L2,30L2,2L18,2L18,4L4,4L4,28L18,28L18,30Z" style="fill:#f0f;"/>
        </g>
        <g transform="matrix(1.2,0,0,1.08333,-6.6,-1.33333)">
            <path d="M27.167,13.231L27.167,10.461L28.833,10.461L28.833,13.936C28.376,13.483 27.783,13.231 27.167,13.231ZM28.833,18.064L28.833,21.538L27.167,21.538L27.167,18.769C27.783,18.769 28.376,18.517 28.833,18.064ZM17.167,19.249L17.167,17.846L18.833,17.846L18.833,20.726L17.167,19.249ZM18.833,11.274L18.833,14.154L17.167,14.154L17.167,12.751L18.833,11.274ZM27.167,27.077L27.167,25.231L28.833,25.231L28.833,28C28.833,28.51 28.46,28.923 28,28.923L25.5,28.923L25.5,27.077L27.167,27.077ZM18.833,27.077L20.5,27.077L20.5,28.923L18,28.923C17.54,28.923 17.167,28.51 17.167,28L17.167,25.231L18.833,25.231L18.833,27.077ZM27.167,4.923L25.5,4.923L25.5,3.077L28,3.077C28.46,3.077 28.833,3.49 28.833,4L28.833,6.769L27.167,6.769L27.167,4.923ZM18.833,4.923L18.833,6.769L17.167,6.769L17.167,4C17.167,3.49 17.54,3.077 18,3.077L20.5,3.077L20.5,4.923L18.833,4.923Z" style="fill:#f0f;"/>
        </g>
        <g transform="matrix(-1.45455,0,0,5.33333,34.7273,-77.3333)">
            <path d="M6,17.875C5.635,17.875 5.286,17.835 5.028,17.765C4.77,17.695 4.625,17.599 4.625,17.5C4.625,17.401 4.77,17.305 5.028,17.235C5.286,17.165 5.635,17.125 6,17.125C8.006,17.125 11.5,17.125 11.5,17.125L11.5,16L18.375,17.5L11.5,19L11.5,17.875C11.5,17.875 8.006,17.875 6,17.875Z" style="fill:#f0f;"/>
        </g>
    </g>
</svg>
