<?xml version="1.0" encoding="UTF-8" standalone="no"?>
<!DOCTYPE svg PUBLIC "-//W3C//DTD SVG 1.1//EN" "http://www.w3.org/Graphics/SVG/1.1/DTD/svg11.dtd">
<svg width="100%" height="100%" viewBox="0 0 32 32" version="1.1" xmlns="http://www.w3.org/2000/svg" xmlns:xlink="http://www.w3.org/1999/xlink" xml:space="preserve" xmlns:serif="http://www.serif.com/" style="fill-rule:evenodd;clip-rule:evenodd;stroke-linejoin:round;stroke-miterlimit:2;">
    <g transform="matrix(1,0,0,1,1.9984e-15,1)">
        <g transform="matrix(0.928571,0,0,0.923077,1.14286,-0.692308)">
            <path d="M27.056,5.083L27.056,2.917L30,2.917C30.595,2.917 31.077,3.402 31.077,4L31.077,6.817L28.923,6.817L28.923,5.733L28.923,5.083L27.056,5.083ZM28.923,9.85L31.077,9.85L31.077,15.483L28.923,15.483L28.923,9.85ZM28.923,18.517L31.077,18.517L31.077,24.15L28.923,24.15L28.923,18.517ZM28.923,27.183L31.077,27.183L31.077,30C31.077,30.598 30.595,31.083 30,31.083L27.056,31.083L27.056,28.917L28.133,28.917L28.923,28.917L28.923,27.183ZM23.61,28.917L23.61,31.083L17.723,31.083L17.723,28.917L23.61,28.917ZM14.277,28.917L14.277,31.083L8.39,31.083L8.39,28.917L14.277,28.917ZM4.944,28.917L4.944,31.083L2,31.083C1.405,31.083 0.923,30.598 0.923,30L0.923,27.183L3.077,27.183L3.077,28.267L3.077,28.917L4.944,28.917ZM3.077,24.15L0.923,24.15L0.923,18.517L3.077,18.517L3.077,24.15ZM3.077,15.483L0.923,15.483L0.923,9.85L3.077,9.85L3.077,15.483ZM3.077,6.817L0.923,6.817L0.923,4C0.923,3.402 1.405,2.917 2,2.917L4.944,2.917L4.944,5.083L3.867,5.083L3.077,5.083L3.077,6.817ZM8.39,5.083L8.39,2.917L14.277,2.917L14.277,5.083L8.39,5.083ZM17.723,5.083L17.723,2.917L23.61,2.917L23.61,5.083L17.723,5.083Z" style="fill:#f0f;"/>
        </g>
        <g transform="matrix(0.714286,0,0,0.5,3.57143,10)">
            <path d="M20.2,16.47L20.2,36L-2.2,36L-2.2,10L15.201,10C15.083,11.725 15.486,13.509 16.41,14.829C17.439,16.299 18.871,16.846 20.2,16.47ZM18.041,10L20.2,10L20.2,12.207C19.653,12.773 18.883,12.704 18.39,12C18.011,11.459 17.895,10.685 18.041,10ZM16,16L2,16L2,30L16,30L16,16Z" style="fill:#f0f;"/>
        </g>
        <g transform="matrix(-1.75,5.04621e-31,4.79732e-31,-1.75,60.75,29)">
            <path d="M17,8L25,16L17,16L17,8Z" style="fill:#f0f;"/>
        </g>
        <g transform="matrix(0.920138,-0.920138,0.707107,0.707107,-3.52694,19.2637)">
            <path d="M23,12C23,13.104 22.311,14 21.463,14L13.537,14C12.689,14 12,13.104 12,12C12,10.896 12.689,10 13.537,10L21.463,10C22.311,10 23,10.896 23,12Z" style="fill:#f0f;"/>
        </g>
    </g>
</svg>
