<?xml version="1.0" encoding="UTF-8" standalone="no"?>
<!DOCTYPE svg PUBLIC "-//W3C//DTD SVG 1.1//EN" "http://www.w3.org/Graphics/SVG/1.1/DTD/svg11.dtd">
<svg width="100%" height="100%" viewBox="0 0 64 32" version="1.1" xmlns="http://www.w3.org/2000/svg" xmlns:xlink="http://www.w3.org/1999/xlink" xml:space="preserve" xmlns:serif="http://www.serif.com/" style="fill-rule:evenodd;clip-rule:evenodd;stroke-linejoin:round;stroke-miterlimit:2;">
    <g id="big" transform="matrix(1,0,0,1,4,0)">
        <g transform="matrix(1,0,0,1,-25.958389,2.315848)">
            <g transform="matrix(22,0,0,22,37.304389,19.690152)">
                <path d="M0.068,-0.027C0.068,0.003 0.087,0.019 0.121,0.019C0.158,0.019 0.175,0.001 0.175,-0.022L0.175,-0.039C0.175,-0.05 0.173,-0.067 0.171,-0.079C0.204,-0.013 0.261,0.029 0.351,0.029C0.503,0.029 0.595,-0.094 0.595,-0.273C0.595,-0.454 0.508,-0.566 0.354,-0.566C0.264,-0.566 0.207,-0.526 0.17,-0.459C0.173,-0.481 0.175,-0.506 0.175,-0.526L0.175,-0.738C0.175,-0.768 0.153,-0.784 0.121,-0.784C0.087,-0.784 0.068,-0.768 0.068,-0.738L0.068,-0.027ZM0.336,-0.476C0.433,-0.476 0.486,-0.398 0.486,-0.272C0.486,-0.146 0.432,-0.063 0.334,-0.063C0.233,-0.063 0.172,-0.149 0.172,-0.271C0.172,-0.391 0.231,-0.476 0.336,-0.476Z" style="fill-rule:nonzero;"/>
            </g>
            <g transform="matrix(22,0,0,22,51.340389,19.690152)">
                <path d="M0.07,-0.027C0.07,0.003 0.09,0.019 0.123,0.019C0.156,0.019 0.177,0.003 0.177,-0.027L0.177,-0.513C0.177,-0.542 0.156,-0.558 0.123,-0.558C0.09,-0.558 0.07,-0.542 0.07,-0.513L0.07,-0.027ZM0.123,-0.784C0.079,-0.784 0.048,-0.755 0.048,-0.714C0.048,-0.673 0.079,-0.644 0.123,-0.644C0.167,-0.644 0.198,-0.673 0.198,-0.714C0.198,-0.755 0.167,-0.784 0.123,-0.784Z" style="fill-rule:nonzero;"/>
            </g>
            <g transform="matrix(22,0,0,22,56.774389,19.690152)">
                <path d="M0.561,-0.512C0.561,-0.542 0.543,-0.558 0.51,-0.558C0.474,-0.558 0.458,-0.539 0.458,-0.518L0.458,-0.494C0.458,-0.484 0.461,-0.468 0.462,-0.459C0.432,-0.519 0.376,-0.565 0.289,-0.565C0.133,-0.565 0.042,-0.448 0.042,-0.273C0.042,-0.104 0.143,0.007 0.288,0.007C0.371,0.007 0.428,-0.032 0.461,-0.091C0.46,-0.078 0.458,-0.059 0.458,-0.049C0.458,0.09 0.415,0.152 0.294,0.152C0.233,0.152 0.192,0.13 0.156,0.089C0.147,0.079 0.135,0.074 0.123,0.074C0.111,0.074 0.098,0.079 0.088,0.087C0.074,0.097 0.066,0.112 0.066,0.127C0.066,0.136 0.069,0.145 0.076,0.153C0.115,0.203 0.187,0.238 0.298,0.238C0.445,0.238 0.561,0.176 0.561,-0.05L0.561,-0.512ZM0.305,-0.478C0.404,-0.478 0.46,-0.395 0.46,-0.279C0.46,-0.16 0.403,-0.076 0.305,-0.076C0.214,-0.076 0.15,-0.151 0.15,-0.273C0.15,-0.398 0.206,-0.478 0.305,-0.478Z" style="fill-rule:nonzero;"/>
            </g>
        </g>
    </g>
</svg>
