<?xml version="1.0" encoding="UTF-8" standalone="no"?>
<!DOCTYPE svg PUBLIC "-//W3C//DTD SVG 1.1//EN" "http://www.w3.org/Graphics/SVG/1.1/DTD/svg11.dtd">
<svg width="100%" height="100%" viewBox="0 0 64 32" version="1.1" xmlns="http://www.w3.org/2000/svg" xmlns:xlink="http://www.w3.org/1999/xlink" xml:space="preserve" xmlns:serif="http://www.serif.com/" style="fill-rule:evenodd;clip-rule:evenodd;stroke-linejoin:round;stroke-miterlimit:2;">
    <g id="defont" transform="matrix(1,0,0,1,4,0)">
        <g transform="matrix(1,0,0,1,-26.268389,3.203848)">
            <g transform="matrix(16,0,0,16,27.772389,19.690152)">
                <path d="M0.498,-0L0.594,-0C0.589,-0.039 0.587,-0.069 0.587,-0.121L0.587,-0.652C0.587,-0.698 0.589,-0.729 0.594,-0.771L0.491,-0.771C0.496,-0.733 0.498,-0.701 0.498,-0.652L0.498,-0.531C0.498,-0.515 0.498,-0.499 0.499,-0.492C0.5,-0.475 0.5,-0.475 0.501,-0.464C0.456,-0.528 0.386,-0.562 0.297,-0.562C0.142,-0.562 0.044,-0.451 0.044,-0.276C0.044,-0.183 0.072,-0.105 0.124,-0.053C0.167,-0.011 0.226,0.01 0.299,0.01C0.388,0.01 0.45,-0.02 0.501,-0.088C0.5,-0.075 0.498,-0.057 0.498,-0.045L0.498,-0ZM0.308,-0.484C0.361,-0.484 0.409,-0.465 0.444,-0.43C0.478,-0.397 0.497,-0.342 0.497,-0.279C0.497,-0.151 0.423,-0.067 0.309,-0.067C0.267,-0.067 0.228,-0.08 0.199,-0.105C0.16,-0.139 0.138,-0.2 0.138,-0.279C0.138,-0.406 0.202,-0.484 0.308,-0.484Z" style="fill-rule:nonzero;"/>
            </g>
            <g transform="matrix(16,0,0,16,38.060389,19.690152)">
                <path d="M0.559,-0.258C0.556,-0.308 0.554,-0.329 0.552,-0.339C0.532,-0.479 0.437,-0.564 0.302,-0.564C0.146,-0.564 0.044,-0.45 0.044,-0.275C0.044,-0.097 0.147,0.015 0.309,0.015C0.386,0.015 0.45,-0.01 0.498,-0.058C0.522,-0.081 0.535,-0.101 0.554,-0.143L0.47,-0.174C0.46,-0.145 0.453,-0.132 0.438,-0.116C0.407,-0.08 0.363,-0.061 0.31,-0.061C0.252,-0.061 0.205,-0.083 0.174,-0.125C0.148,-0.16 0.138,-0.193 0.134,-0.258L0.559,-0.258ZM0.137,-0.331C0.143,-0.367 0.148,-0.383 0.162,-0.407C0.192,-0.46 0.241,-0.489 0.3,-0.489C0.347,-0.489 0.385,-0.475 0.415,-0.446C0.444,-0.417 0.459,-0.383 0.465,-0.331L0.137,-0.331Z" style="fill-rule:nonzero;"/>
            </g>
            <g transform="matrix(16,0,0,16,47.372389,19.690152)">
                <path d="M0.144,-0.474L0.144,-0.118C0.144,-0.073 0.142,-0.037 0.137,-0L0.242,-0C0.237,-0.035 0.235,-0.067 0.235,-0.118L0.235,-0.474L0.284,-0.474C0.333,-0.474 0.358,-0.472 0.392,-0.468L0.392,-0.556C0.354,-0.552 0.325,-0.55 0.284,-0.55L0.235,-0.55L0.235,-0.601C0.235,-0.656 0.241,-0.677 0.261,-0.692C0.275,-0.702 0.294,-0.706 0.32,-0.706C0.348,-0.706 0.374,-0.699 0.401,-0.684L0.424,-0.761C0.386,-0.775 0.353,-0.781 0.314,-0.781C0.254,-0.781 0.206,-0.764 0.18,-0.733C0.154,-0.704 0.144,-0.669 0.144,-0.607L0.144,-0.55L0.103,-0.55C0.065,-0.55 0.038,-0.552 0.011,-0.556L0.011,-0.468C0.042,-0.472 0.068,-0.474 0.103,-0.474L0.144,-0.474Z" style="fill-rule:nonzero;"/>
            </g>
            <g transform="matrix(16,0,0,16,53.996389,19.690152)">
                <path d="M0.321,0.014C0.486,0.014 0.594,-0.1 0.594,-0.276C0.594,-0.452 0.487,-0.564 0.319,-0.564C0.151,-0.564 0.044,-0.451 0.044,-0.275C0.044,-0.098 0.151,0.014 0.321,0.014ZM0.321,-0.489C0.433,-0.489 0.502,-0.407 0.502,-0.274C0.502,-0.142 0.433,-0.062 0.319,-0.062C0.206,-0.062 0.136,-0.144 0.136,-0.276C0.136,-0.408 0.207,-0.489 0.321,-0.489Z" style="fill-rule:nonzero;"/>
            </g>
            <g transform="matrix(16,0,0,16,63.884389,19.690152)">
                <path d="M0.174,-0C0.169,-0.04 0.167,-0.074 0.167,-0.118L0.167,-0.314C0.178,-0.355 0.191,-0.379 0.218,-0.411C0.259,-0.46 0.302,-0.482 0.354,-0.482C0.43,-0.482 0.469,-0.437 0.469,-0.349L0.469,-0.118C0.469,-0.071 0.467,-0.042 0.462,-0L0.567,-0C0.562,-0.034 0.56,-0.065 0.56,-0.117L0.56,-0.363C0.56,-0.416 0.55,-0.455 0.53,-0.486C0.497,-0.534 0.44,-0.56 0.367,-0.56C0.278,-0.56 0.215,-0.525 0.165,-0.448C0.167,-0.473 0.167,-0.478 0.167,-0.491L0.167,-0.55L0.069,-0.55C0.075,-0.51 0.077,-0.481 0.077,-0.432L0.077,-0.118C0.077,-0.067 0.075,-0.04 0.069,-0L0.174,-0Z" style="fill-rule:nonzero;"/>
            </g>
            <g transform="matrix(16,0,0,16,73.708389,19.690152)">
                <path d="M0.133,-0.7C0.137,-0.666 0.14,-0.626 0.14,-0.586L0.14,-0.55L0.101,-0.55C0.059,-0.55 0.039,-0.551 0.011,-0.556L0.011,-0.468C0.043,-0.472 0.065,-0.474 0.1,-0.474L0.14,-0.474L0.14,-0.123C0.14,-0.072 0.149,-0.042 0.171,-0.021C0.193,-0.001 0.229,0.01 0.277,0.01C0.319,0.01 0.351,0.004 0.393,-0.013L0.371,-0.094C0.34,-0.076 0.32,-0.07 0.293,-0.07C0.272,-0.07 0.255,-0.076 0.245,-0.085C0.235,-0.095 0.231,-0.109 0.231,-0.138L0.231,-0.474L0.278,-0.474C0.324,-0.474 0.347,-0.473 0.379,-0.468L0.379,-0.556C0.346,-0.551 0.324,-0.55 0.277,-0.55L0.231,-0.55L0.231,-0.586C0.231,-0.629 0.234,-0.668 0.238,-0.7L0.133,-0.7Z" style="fill-rule:nonzero;"/>
            </g>
        </g>
    </g>
</svg>
