<?xml version="1.0" encoding="UTF-8" standalone="no"?>
<!DOCTYPE svg PUBLIC "-//W3C//DTD SVG 1.1//EN" "http://www.w3.org/Graphics/SVG/1.1/DTD/svg11.dtd">
<svg width="100%" height="100%" viewBox="0 0 64 32" version="1.1" xmlns="http://www.w3.org/2000/svg" xmlns:xlink="http://www.w3.org/1999/xlink" xml:space="preserve" xmlns:serif="http://www.serif.com/" style="fill-rule:evenodd;clip-rule:evenodd;stroke-linejoin:round;stroke-miterlimit:2;">
    <g id="gothic" transform="matrix(1,0,0,1,3.998047,0.60498)">
        <g transform="matrix(1,0,0,1,-25.996014,2.652622)">
            <g transform="matrix(18,0,0,18,28.579999,19.690152)">
                <path d="M0.51,-0.593L0.504,-0.523C0.478,-0.523 0.456,-0.52 0.44,-0.513C0.428,-0.507 0.415,-0.499 0.402,-0.486C0.435,-0.457 0.452,-0.42 0.452,-0.374C0.452,-0.32 0.432,-0.278 0.393,-0.247C0.358,-0.22 0.315,-0.207 0.263,-0.207C0.235,-0.207 0.209,-0.212 0.186,-0.222C0.155,-0.204 0.14,-0.186 0.14,-0.165C0.14,-0.15 0.146,-0.139 0.159,-0.132C0.173,-0.125 0.198,-0.12 0.235,-0.116L0.338,-0.106C0.406,-0.099 0.453,-0.084 0.48,-0.06C0.5,-0.041 0.511,-0.015 0.511,0.018C0.511,0.064 0.487,0.1 0.441,0.126C0.398,0.151 0.34,0.163 0.268,0.163C0.192,0.163 0.134,0.15 0.094,0.125C0.06,0.104 0.043,0.075 0.043,0.04C0.043,-0.008 0.077,-0.044 0.144,-0.066C0.093,-0.078 0.068,-0.103 0.068,-0.142C0.068,-0.178 0.093,-0.212 0.142,-0.244C0.097,-0.274 0.074,-0.318 0.074,-0.374C0.074,-0.426 0.094,-0.468 0.135,-0.5C0.17,-0.527 0.213,-0.54 0.263,-0.54C0.301,-0.54 0.335,-0.532 0.364,-0.515C0.383,-0.544 0.405,-0.565 0.429,-0.577C0.451,-0.587 0.478,-0.593 0.51,-0.593ZM0.263,-0.485C0.229,-0.485 0.201,-0.474 0.179,-0.451C0.16,-0.431 0.15,-0.405 0.15,-0.373C0.15,-0.337 0.162,-0.308 0.188,-0.287C0.208,-0.27 0.233,-0.261 0.263,-0.261C0.297,-0.261 0.325,-0.272 0.347,-0.295C0.366,-0.315 0.376,-0.341 0.376,-0.373C0.376,-0.409 0.363,-0.438 0.338,-0.459C0.318,-0.476 0.293,-0.485 0.263,-0.485ZM0.204,-0.053C0.144,-0.036 0.114,-0.009 0.114,0.029C0.114,0.057 0.13,0.078 0.163,0.092C0.19,0.104 0.226,0.11 0.271,0.11C0.327,0.11 0.37,0.101 0.401,0.083C0.425,0.068 0.438,0.05 0.438,0.028C0.438,0.007 0.429,-0.008 0.412,-0.019C0.394,-0.029 0.364,-0.036 0.322,-0.041L0.204,-0.053Z" style="fill-rule:nonzero;"/>
            </g>
            <g transform="matrix(18,0,0,18,38.423749,19.690152)">
                <path d="M0.28,-0.54C0.35,-0.54 0.404,-0.513 0.445,-0.459C0.481,-0.412 0.499,-0.35 0.499,-0.274C0.499,-0.186 0.476,-0.118 0.43,-0.068C0.39,-0.026 0.34,-0.005 0.279,-0.005C0.209,-0.005 0.154,-0.032 0.113,-0.086C0.078,-0.133 0.06,-0.195 0.06,-0.271C0.06,-0.359 0.083,-0.427 0.129,-0.477C0.169,-0.519 0.219,-0.54 0.28,-0.54ZM0.28,-0.477C0.234,-0.477 0.199,-0.457 0.175,-0.417C0.154,-0.382 0.143,-0.334 0.143,-0.273C0.143,-0.203 0.157,-0.15 0.184,-0.114C0.208,-0.083 0.239,-0.068 0.279,-0.068C0.325,-0.068 0.36,-0.088 0.384,-0.127C0.405,-0.163 0.416,-0.211 0.416,-0.273C0.416,-0.343 0.402,-0.395 0.375,-0.431C0.352,-0.462 0.32,-0.477 0.28,-0.477Z" style="fill-rule:nonzero;"/>
            </g>
            <g transform="matrix(18,0,0,18,48.487225,19.690152)">
                <path d="M0.196,-0.706L0.196,-0.529L0.318,-0.529L0.318,-0.466L0.196,-0.466L0.196,-0.151C0.196,-0.096 0.22,-0.068 0.267,-0.068C0.292,-0.068 0.313,-0.07 0.331,-0.074L0.327,-0.011C0.304,-0.008 0.278,-0.006 0.248,-0.006C0.16,-0.006 0.116,-0.049 0.116,-0.136L0.116,-0.466L0.033,-0.466L0.033,-0.529L0.116,-0.529L0.116,-0.688L0.196,-0.706Z" style="fill-rule:nonzero;"/>
            </g>
            <g transform="matrix(18,0,0,18,54.806561,19.690152)">
                <path d="M0.173,-0.768L0.173,-0.438C0.226,-0.507 0.285,-0.541 0.349,-0.541C0.394,-0.541 0.43,-0.526 0.456,-0.497C0.479,-0.471 0.491,-0.436 0.491,-0.394L0.491,-0.018L0.408,-0.018L0.408,-0.365C0.408,-0.434 0.379,-0.469 0.322,-0.469C0.271,-0.469 0.221,-0.435 0.173,-0.368L0.173,-0.018L0.092,-0.018L0.092,-0.768L0.173,-0.768Z" style="fill-rule:nonzero;"/>
            </g>
            <g transform="matrix(18,0,0,18,65.247967,19.690152)">
                <path d="M0.174,-0.529L0.174,-0.018L0.092,-0.018L0.092,-0.529L0.174,-0.529ZM0.183,-0.726L0.183,-0.627L0.083,-0.627L0.083,-0.726L0.183,-0.726Z" style="fill-rule:nonzero;"/>
            </g>
            <g transform="matrix(18,0,0,18,70.038006,19.690152)">
                <path d="M0.475,-0.389L0.395,-0.368C0.38,-0.441 0.342,-0.477 0.281,-0.477C0.235,-0.477 0.2,-0.457 0.176,-0.417C0.154,-0.382 0.143,-0.334 0.143,-0.274C0.143,-0.204 0.157,-0.151 0.185,-0.115C0.209,-0.084 0.241,-0.069 0.281,-0.069C0.346,-0.069 0.386,-0.106 0.401,-0.181L0.478,-0.157C0.449,-0.056 0.383,-0.006 0.28,-0.006C0.208,-0.006 0.152,-0.033 0.112,-0.086C0.077,-0.133 0.06,-0.195 0.06,-0.272C0.06,-0.36 0.083,-0.429 0.128,-0.478C0.168,-0.52 0.218,-0.541 0.28,-0.541C0.333,-0.541 0.377,-0.526 0.411,-0.497C0.442,-0.471 0.463,-0.435 0.475,-0.389Z" style="fill-rule:nonzero;"/>
            </g>
        </g>
    </g>
</svg>
