<?xml version="1.0" encoding="UTF-8" standalone="no"?>
<!DOCTYPE svg PUBLIC "-//W3C//DTD SVG 1.1//EN" "http://www.w3.org/Graphics/SVG/1.1/DTD/svg11.dtd">
<svg width="100%" height="100%" viewBox="0 0 64 32" version="1.1" xmlns="http://www.w3.org/2000/svg" xmlns:xlink="http://www.w3.org/1999/xlink" xml:space="preserve" xmlns:serif="http://www.serif.com/" style="fill-rule:evenodd;clip-rule:evenodd;stroke-linejoin:round;stroke-miterlimit:2;">
    <g id="medium" transform="matrix(1,0,0,1,4,0)">
        <g transform="matrix(1,0,0,1,-25.964389,2.349848)">
            <g transform="matrix(16,0,0,16,24.660389,19.690152)">
                <path d="M0.824,-0.368C0.824,-0.494 0.776,-0.566 0.656,-0.566C0.548,-0.566 0.511,-0.511 0.481,-0.459C0.467,-0.527 0.419,-0.566 0.331,-0.566C0.237,-0.566 0.194,-0.513 0.169,-0.455C0.171,-0.468 0.174,-0.484 0.174,-0.496L0.174,-0.514C0.174,-0.543 0.154,-0.558 0.123,-0.558C0.089,-0.558 0.068,-0.542 0.068,-0.513L0.068,-0.027C0.068,0.003 0.088,0.019 0.122,0.019C0.154,0.019 0.175,0.003 0.175,-0.027L0.175,-0.319C0.175,-0.352 0.183,-0.387 0.201,-0.413C0.224,-0.446 0.253,-0.473 0.302,-0.473C0.367,-0.473 0.391,-0.427 0.391,-0.344L0.391,-0.027C0.391,0.003 0.41,0.019 0.444,0.019C0.476,0.019 0.497,0.003 0.497,-0.027L0.497,-0.323C0.497,-0.353 0.507,-0.39 0.523,-0.412C0.547,-0.446 0.578,-0.473 0.627,-0.473C0.694,-0.473 0.716,-0.427 0.716,-0.344L0.716,-0.027C0.716,0.003 0.736,0.019 0.769,0.019C0.801,0.019 0.824,0.003 0.824,-0.027L0.824,-0.368Z" style="fill-rule:nonzero;"/>
            </g>
            <g transform="matrix(16,0,0,16,38.276389,19.690152)">
                <path d="M0.498,-0.246C0.529,-0.246 0.549,-0.265 0.549,-0.303L0.549,-0.309C0.541,-0.453 0.451,-0.567 0.302,-0.567C0.135,-0.567 0.042,-0.442 0.042,-0.267C0.042,-0.09 0.14,0.029 0.308,0.029C0.443,0.029 0.503,-0.037 0.535,-0.103C0.538,-0.11 0.54,-0.117 0.54,-0.124C0.54,-0.144 0.524,-0.159 0.504,-0.164C0.495,-0.167 0.486,-0.169 0.478,-0.169C0.461,-0.169 0.447,-0.161 0.438,-0.141C0.414,-0.09 0.377,-0.057 0.309,-0.057C0.209,-0.057 0.15,-0.128 0.146,-0.246L0.498,-0.246ZM0.149,-0.328C0.163,-0.424 0.211,-0.483 0.303,-0.483C0.391,-0.483 0.431,-0.413 0.442,-0.345C0.443,-0.343 0.443,-0.341 0.443,-0.339C0.443,-0.331 0.439,-0.328 0.429,-0.328L0.149,-0.328Z" style="fill-rule:nonzero;"/>
            </g>
            <g transform="matrix(16,0,0,16,47.012389,19.690152)">
                <path d="M0.462,-0.526C0.462,-0.505 0.464,-0.48 0.466,-0.458C0.431,-0.525 0.376,-0.566 0.285,-0.566C0.135,-0.566 0.042,-0.452 0.042,-0.273C0.042,-0.089 0.135,0.029 0.284,0.029C0.375,0.029 0.43,-0.011 0.465,-0.077C0.464,-0.066 0.462,-0.049 0.462,-0.04L0.462,-0.022C0.462,-0 0.478,0.019 0.515,0.019C0.549,0.019 0.569,0.003 0.569,-0.027L0.569,-0.738C0.569,-0.769 0.55,-0.784 0.516,-0.784C0.484,-0.784 0.462,-0.769 0.462,-0.738L0.462,-0.526ZM0.304,-0.476C0.409,-0.476 0.465,-0.388 0.465,-0.271C0.465,-0.15 0.404,-0.062 0.303,-0.062C0.206,-0.062 0.151,-0.144 0.151,-0.272C0.151,-0.394 0.206,-0.476 0.304,-0.476Z" style="fill-rule:nonzero;"/>
            </g>
            <g transform="matrix(16,0,0,16,56.596389,19.690152)">
                <path d="M0.07,-0.027C0.07,0.003 0.09,0.019 0.123,0.019C0.156,0.019 0.177,0.003 0.177,-0.027L0.177,-0.513C0.177,-0.542 0.156,-0.558 0.123,-0.558C0.09,-0.558 0.07,-0.542 0.07,-0.513L0.07,-0.027ZM0.123,-0.784C0.079,-0.784 0.048,-0.755 0.048,-0.714C0.048,-0.673 0.079,-0.644 0.123,-0.644C0.167,-0.644 0.198,-0.673 0.198,-0.714C0.198,-0.755 0.167,-0.784 0.123,-0.784Z" style="fill-rule:nonzero;"/>
            </g>
            <g transform="matrix(16,0,0,16,59.908389,19.690152)">
                <path d="M0.065,-0.172C0.065,-0.046 0.132,0.028 0.252,0.028C0.348,0.028 0.406,-0.018 0.439,-0.086C0.437,-0.073 0.434,-0.056 0.434,-0.046L0.434,-0.022C0.434,0.005 0.455,0.019 0.488,0.019C0.521,0.019 0.541,0.004 0.541,-0.026L0.541,-0.512C0.541,-0.542 0.52,-0.558 0.487,-0.558C0.455,-0.558 0.433,-0.542 0.433,-0.512L0.433,-0.229C0.433,-0.193 0.422,-0.161 0.399,-0.13C0.368,-0.088 0.327,-0.065 0.277,-0.065C0.207,-0.065 0.174,-0.11 0.174,-0.195L0.174,-0.512C0.174,-0.542 0.153,-0.558 0.12,-0.558C0.087,-0.558 0.065,-0.542 0.065,-0.512L0.065,-0.172Z" style="fill-rule:nonzero;"/>
            </g>
            <g transform="matrix(16,0,0,16,69.044389,19.690152)">
                <path d="M0.824,-0.368C0.824,-0.494 0.776,-0.566 0.656,-0.566C0.548,-0.566 0.511,-0.511 0.481,-0.459C0.467,-0.527 0.419,-0.566 0.331,-0.566C0.237,-0.566 0.194,-0.513 0.169,-0.455C0.171,-0.468 0.174,-0.484 0.174,-0.496L0.174,-0.514C0.174,-0.543 0.154,-0.558 0.123,-0.558C0.089,-0.558 0.068,-0.542 0.068,-0.513L0.068,-0.027C0.068,0.003 0.088,0.019 0.122,0.019C0.154,0.019 0.175,0.003 0.175,-0.027L0.175,-0.319C0.175,-0.352 0.183,-0.387 0.201,-0.413C0.224,-0.446 0.253,-0.473 0.302,-0.473C0.367,-0.473 0.391,-0.427 0.391,-0.344L0.391,-0.027C0.391,0.003 0.41,0.019 0.444,0.019C0.476,0.019 0.497,0.003 0.497,-0.027L0.497,-0.323C0.497,-0.353 0.507,-0.39 0.523,-0.412C0.547,-0.446 0.578,-0.473 0.627,-0.473C0.694,-0.473 0.716,-0.427 0.716,-0.344L0.716,-0.027C0.716,0.003 0.736,0.019 0.769,0.019C0.801,0.019 0.824,0.003 0.824,-0.027L0.824,-0.368Z" style="fill-rule:nonzero;"/>
            </g>
        </g>
    </g>
</svg>
