<?xml version="1.0" encoding="UTF-8" standalone="no"?>
<!DOCTYPE svg PUBLIC "-//W3C//DTD SVG 1.1//EN" "http://www.w3.org/Graphics/SVG/1.1/DTD/svg11.dtd">
<svg width="100%" height="100%" viewBox="0 0 64 32" version="1.1" xmlns="http://www.w3.org/2000/svg" xmlns:xlink="http://www.w3.org/1999/xlink" xml:space="preserve" xmlns:serif="http://www.serif.com/" style="fill-rule:evenodd;clip-rule:evenodd;stroke-linejoin:round;stroke-miterlimit:2;">
    <g id="mincho" transform="matrix(1,0,0,1,4,0)">
        <g transform="matrix(1,0,0,1,-25.857342,3.477329)">
            <g transform="matrix(18,0,0,18,26.231561,19.690152)">
                <path d="M0.463,-0.385C0.506,-0.451 0.557,-0.484 0.616,-0.484C0.66,-0.484 0.694,-0.471 0.718,-0.444C0.741,-0.42 0.752,-0.388 0.752,-0.347L0.751,-0.237L0.751,-0.174C0.751,-0.114 0.753,-0.08 0.757,-0.072C0.762,-0.063 0.781,-0.057 0.815,-0.054C0.821,-0.053 0.823,-0.049 0.823,-0.043C0.823,-0.036 0.821,-0.032 0.815,-0.032C0.778,-0.034 0.746,-0.034 0.719,-0.034C0.695,-0.034 0.661,-0.034 0.617,-0.032C0.611,-0.032 0.608,-0.036 0.608,-0.043C0.608,-0.049 0.611,-0.053 0.617,-0.054C0.647,-0.056 0.665,-0.062 0.67,-0.072C0.676,-0.081 0.678,-0.115 0.678,-0.174L0.678,-0.327C0.678,-0.351 0.674,-0.37 0.667,-0.384C0.651,-0.418 0.624,-0.436 0.587,-0.436C0.549,-0.436 0.517,-0.417 0.491,-0.378C0.481,-0.365 0.475,-0.353 0.472,-0.343C0.469,-0.333 0.468,-0.319 0.468,-0.302L0.468,-0.174C0.468,-0.116 0.47,-0.082 0.476,-0.072C0.481,-0.063 0.501,-0.057 0.535,-0.054C0.54,-0.053 0.543,-0.049 0.543,-0.042C0.543,-0.035 0.54,-0.032 0.535,-0.032C0.494,-0.034 0.461,-0.034 0.438,-0.034C0.411,-0.034 0.377,-0.034 0.336,-0.032C0.331,-0.032 0.328,-0.035 0.328,-0.042C0.328,-0.049 0.331,-0.053 0.337,-0.054C0.368,-0.057 0.386,-0.063 0.39,-0.072C0.395,-0.083 0.398,-0.117 0.398,-0.174L0.398,-0.329C0.398,-0.353 0.395,-0.371 0.388,-0.384C0.371,-0.418 0.344,-0.436 0.306,-0.436C0.269,-0.436 0.238,-0.417 0.211,-0.378C0.197,-0.358 0.19,-0.333 0.19,-0.302L0.19,-0.174C0.19,-0.115 0.192,-0.081 0.196,-0.072C0.2,-0.063 0.219,-0.057 0.253,-0.054C0.257,-0.053 0.26,-0.049 0.26,-0.043C0.26,-0.036 0.257,-0.032 0.253,-0.032C0.214,-0.034 0.182,-0.034 0.155,-0.034C0.131,-0.034 0.098,-0.034 0.057,-0.032C0.052,-0.032 0.049,-0.036 0.049,-0.043C0.049,-0.049 0.052,-0.053 0.057,-0.054C0.086,-0.056 0.104,-0.062 0.109,-0.072C0.115,-0.082 0.118,-0.116 0.118,-0.174L0.118,-0.314C0.118,-0.354 0.116,-0.381 0.111,-0.394C0.106,-0.409 0.097,-0.416 0.082,-0.416L0.047,-0.414C0.042,-0.414 0.039,-0.419 0.039,-0.428C0.039,-0.434 0.043,-0.438 0.051,-0.44C0.096,-0.451 0.139,-0.464 0.181,-0.481C0.188,-0.481 0.192,-0.478 0.192,-0.472C0.191,-0.436 0.19,-0.409 0.19,-0.391C0.231,-0.453 0.28,-0.484 0.337,-0.484C0.371,-0.484 0.399,-0.475 0.422,-0.456C0.442,-0.438 0.455,-0.415 0.463,-0.385Z" style="fill-rule:nonzero;"/>
            </g>
            <g transform="matrix(18,0,0,18,40.830897,19.690152)">
                <path d="M0.115,-0.315C0.115,-0.357 0.113,-0.384 0.107,-0.397C0.102,-0.41 0.092,-0.417 0.078,-0.417L0.041,-0.415C0.036,-0.415 0.033,-0.419 0.033,-0.428C0.033,-0.434 0.037,-0.439 0.045,-0.441C0.096,-0.453 0.14,-0.467 0.178,-0.482C0.186,-0.482 0.19,-0.479 0.19,-0.473C0.187,-0.41 0.186,-0.352 0.186,-0.301L0.186,-0.176C0.186,-0.115 0.188,-0.08 0.192,-0.073C0.197,-0.064 0.217,-0.059 0.251,-0.056C0.257,-0.055 0.259,-0.052 0.259,-0.045C0.259,-0.037 0.257,-0.032 0.251,-0.032C0.211,-0.034 0.179,-0.034 0.154,-0.034C0.125,-0.034 0.091,-0.034 0.052,-0.032C0.047,-0.032 0.044,-0.037 0.044,-0.045C0.044,-0.052 0.047,-0.055 0.052,-0.056C0.083,-0.059 0.101,-0.065 0.107,-0.073C0.113,-0.08 0.115,-0.115 0.115,-0.176L0.115,-0.315ZM0.145,-0.757C0.16,-0.757 0.173,-0.75 0.185,-0.737C0.195,-0.726 0.2,-0.714 0.2,-0.701C0.2,-0.685 0.194,-0.671 0.181,-0.659C0.17,-0.65 0.158,-0.645 0.145,-0.645C0.129,-0.645 0.116,-0.651 0.104,-0.664C0.094,-0.674 0.088,-0.687 0.088,-0.701C0.088,-0.716 0.095,-0.729 0.108,-0.741C0.119,-0.752 0.132,-0.757 0.145,-0.757Z" style="fill-rule:nonzero;"/>
            </g>
            <g transform="matrix(18,0,0,18,45.278866,19.690152)">
                <path d="M0.188,-0.392C0.227,-0.454 0.278,-0.484 0.34,-0.484C0.384,-0.484 0.419,-0.471 0.446,-0.444C0.47,-0.419 0.482,-0.387 0.482,-0.347L0.481,-0.237L0.481,-0.174C0.481,-0.115 0.484,-0.081 0.489,-0.072C0.494,-0.063 0.512,-0.057 0.542,-0.054C0.548,-0.053 0.551,-0.049 0.551,-0.043C0.551,-0.036 0.548,-0.032 0.542,-0.032C0.504,-0.034 0.472,-0.034 0.448,-0.034C0.423,-0.034 0.389,-0.034 0.348,-0.032C0.342,-0.032 0.339,-0.036 0.339,-0.043C0.339,-0.049 0.342,-0.053 0.348,-0.054C0.375,-0.056 0.393,-0.062 0.399,-0.072C0.405,-0.081 0.408,-0.115 0.408,-0.174L0.408,-0.327C0.408,-0.351 0.404,-0.37 0.397,-0.384C0.38,-0.418 0.351,-0.436 0.311,-0.436C0.271,-0.436 0.238,-0.417 0.21,-0.379C0.195,-0.36 0.188,-0.334 0.188,-0.302L0.188,-0.174C0.188,-0.114 0.19,-0.08 0.195,-0.072C0.199,-0.066 0.204,-0.062 0.211,-0.06C0.219,-0.058 0.232,-0.056 0.251,-0.054C0.257,-0.053 0.259,-0.049 0.259,-0.043C0.259,-0.036 0.257,-0.032 0.251,-0.032C0.211,-0.034 0.18,-0.034 0.157,-0.034C0.131,-0.034 0.097,-0.034 0.057,-0.032C0.052,-0.032 0.049,-0.036 0.049,-0.043C0.049,-0.049 0.052,-0.053 0.057,-0.054C0.084,-0.056 0.102,-0.062 0.108,-0.072C0.114,-0.081 0.117,-0.115 0.117,-0.174L0.117,-0.314C0.117,-0.356 0.115,-0.383 0.109,-0.395C0.103,-0.409 0.093,-0.416 0.081,-0.416L0.046,-0.414C0.04,-0.414 0.037,-0.419 0.037,-0.429C0.037,-0.435 0.042,-0.439 0.05,-0.44C0.092,-0.449 0.135,-0.463 0.179,-0.481C0.186,-0.481 0.19,-0.478 0.19,-0.472C0.189,-0.436 0.188,-0.41 0.188,-0.392Z" style="fill-rule:nonzero;"/>
            </g>
            <g transform="matrix(18,0,0,18,55.01785,19.690152)">
                <path d="M0.266,-0.485C0.306,-0.485 0.344,-0.478 0.379,-0.463C0.404,-0.453 0.416,-0.439 0.416,-0.421C0.416,-0.401 0.412,-0.385 0.404,-0.375C0.398,-0.366 0.391,-0.361 0.382,-0.361C0.371,-0.361 0.355,-0.376 0.335,-0.405L0.329,-0.414C0.311,-0.441 0.289,-0.455 0.262,-0.455C0.223,-0.455 0.192,-0.435 0.169,-0.395C0.148,-0.358 0.137,-0.311 0.137,-0.252C0.137,-0.193 0.154,-0.145 0.187,-0.108C0.214,-0.078 0.244,-0.063 0.278,-0.063C0.313,-0.063 0.341,-0.069 0.362,-0.081C0.379,-0.091 0.396,-0.108 0.413,-0.13C0.416,-0.134 0.418,-0.135 0.42,-0.135C0.424,-0.135 0.429,-0.134 0.433,-0.13C0.436,-0.128 0.438,-0.125 0.438,-0.122C0.438,-0.121 0.437,-0.119 0.436,-0.116C0.395,-0.049 0.337,-0.016 0.264,-0.016C0.2,-0.016 0.147,-0.04 0.107,-0.087C0.071,-0.13 0.053,-0.183 0.053,-0.247C0.053,-0.321 0.077,-0.381 0.124,-0.427C0.163,-0.466 0.211,-0.485 0.266,-0.485Z" style="fill-rule:nonzero;"/>
            </g>
            <g transform="matrix(18,0,0,18,62.629881,19.690152)">
                <path d="M0.172,-0.394C0.211,-0.455 0.262,-0.485 0.326,-0.485C0.371,-0.485 0.406,-0.472 0.432,-0.446C0.455,-0.422 0.467,-0.389 0.467,-0.347L0.466,-0.238L0.466,-0.175C0.466,-0.117 0.468,-0.083 0.473,-0.073C0.477,-0.064 0.496,-0.058 0.529,-0.055C0.535,-0.054 0.538,-0.05 0.538,-0.043C0.538,-0.036 0.535,-0.032 0.528,-0.032C0.488,-0.034 0.456,-0.034 0.432,-0.034C0.407,-0.034 0.374,-0.034 0.333,-0.032C0.326,-0.032 0.323,-0.036 0.323,-0.043C0.323,-0.05 0.326,-0.054 0.333,-0.055C0.363,-0.057 0.38,-0.063 0.385,-0.073C0.39,-0.084 0.393,-0.118 0.393,-0.175L0.393,-0.33C0.393,-0.354 0.39,-0.372 0.383,-0.385C0.366,-0.419 0.337,-0.436 0.296,-0.436C0.253,-0.436 0.219,-0.417 0.193,-0.38C0.179,-0.36 0.172,-0.334 0.172,-0.303L0.172,-0.175C0.172,-0.116 0.174,-0.082 0.178,-0.073C0.182,-0.064 0.201,-0.058 0.236,-0.055C0.242,-0.054 0.245,-0.05 0.245,-0.043C0.245,-0.036 0.242,-0.032 0.236,-0.032C0.195,-0.034 0.164,-0.034 0.143,-0.034C0.116,-0.034 0.082,-0.034 0.039,-0.032C0.034,-0.032 0.031,-0.036 0.031,-0.043C0.031,-0.05 0.034,-0.054 0.039,-0.055C0.06,-0.057 0.073,-0.059 0.08,-0.062C0.085,-0.064 0.089,-0.068 0.092,-0.073C0.098,-0.083 0.101,-0.117 0.101,-0.175L0.101,-0.614C0.101,-0.656 0.098,-0.683 0.093,-0.696C0.088,-0.71 0.078,-0.716 0.065,-0.716L0.03,-0.714C0.025,-0.714 0.022,-0.719 0.022,-0.727C0.022,-0.734 0.026,-0.739 0.034,-0.74C0.071,-0.748 0.115,-0.761 0.166,-0.78C0.173,-0.78 0.177,-0.778 0.177,-0.773C0.174,-0.691 0.172,-0.612 0.172,-0.536L0.172,-0.394Z" style="fill-rule:nonzero;"/>
            </g>
            <g transform="matrix(18,0,0,18,72.096405,19.690152)">
                <path d="M0.267,-0.485C0.332,-0.485 0.384,-0.462 0.426,-0.415C0.464,-0.372 0.482,-0.319 0.482,-0.253C0.482,-0.18 0.459,-0.12 0.413,-0.075C0.373,-0.036 0.324,-0.016 0.267,-0.016C0.202,-0.016 0.149,-0.04 0.108,-0.088C0.071,-0.131 0.053,-0.184 0.053,-0.247C0.053,-0.32 0.077,-0.38 0.125,-0.427C0.165,-0.466 0.213,-0.485 0.267,-0.485ZM0.267,-0.456C0.225,-0.456 0.193,-0.436 0.17,-0.397C0.149,-0.362 0.138,-0.313 0.138,-0.25C0.138,-0.177 0.152,-0.123 0.179,-0.089C0.201,-0.061 0.23,-0.046 0.267,-0.046C0.309,-0.046 0.342,-0.066 0.366,-0.104C0.388,-0.14 0.398,-0.189 0.398,-0.25C0.398,-0.325 0.384,-0.379 0.356,-0.414C0.334,-0.442 0.304,-0.456 0.267,-0.456Z" style="fill-rule:nonzero;"/>
            </g>
        </g>
    </g>
</svg>
