<?xml version="1.0" encoding="UTF-8" standalone="no"?>
<!DOCTYPE svg PUBLIC "-//W3C//DTD SVG 1.1//EN" "http://www.w3.org/Graphics/SVG/1.1/DTD/svg11.dtd">
<svg width="100%" height="100%" viewBox="0 0 64 32" version="1.1" xmlns="http://www.w3.org/2000/svg" xmlns:xlink="http://www.w3.org/1999/xlink" xml:space="preserve" xmlns:serif="http://www.serif.com/" style="fill-rule:evenodd;clip-rule:evenodd;stroke-linejoin:round;stroke-miterlimit:2;">
    <g id="naka" transform="matrix(1,0,0,1,3.934417,0.371932)">
        <g transform="matrix(1,0,0,1,-4.792837,1.621983)">
            <g transform="matrix(16,0,0,16,23.980389,19.690152)">
                <path d="M0.547,-0.367C0.547,-0.494 0.482,-0.566 0.36,-0.566C0.268,-0.566 0.209,-0.525 0.173,-0.455C0.173,-0.471 0.176,-0.48 0.176,-0.491L0.176,-0.514C0.176,-0.543 0.155,-0.558 0.123,-0.558C0.089,-0.558 0.068,-0.542 0.068,-0.513L0.068,-0.027C0.068,0.003 0.088,0.019 0.122,0.019C0.154,0.019 0.176,0.003 0.176,-0.027L0.176,-0.311C0.176,-0.348 0.187,-0.377 0.211,-0.409C0.243,-0.451 0.285,-0.473 0.335,-0.473C0.407,-0.473 0.438,-0.427 0.438,-0.344L0.438,-0.027C0.438,0.003 0.459,0.019 0.493,0.019C0.525,0.019 0.547,0.003 0.547,-0.027L0.547,-0.367Z" style="fill-rule:nonzero;"/>
            </g>
            <g transform="matrix(16,0,0,16,33.804389,19.690152)">
                <path d="M0.408,-0.347C0.298,-0.344 0.247,-0.338 0.193,-0.323C0.096,-0.296 0.041,-0.235 0.041,-0.143C0.041,-0.035 0.11,0.027 0.225,0.027C0.319,0.027 0.373,-0.009 0.411,-0.051C0.412,-0.034 0.414,-0.017 0.417,-0.007C0.423,0.012 0.442,0.019 0.464,0.019L0.474,0.019C0.504,0.017 0.521,0.001 0.521,-0.018C0.521,-0.022 0.521,-0.025 0.52,-0.028C0.514,-0.048 0.509,-0.081 0.509,-0.116L0.509,-0.388C0.509,-0.512 0.441,-0.566 0.3,-0.566C0.218,-0.566 0.172,-0.549 0.135,-0.523C0.109,-0.503 0.083,-0.474 0.072,-0.443C0.07,-0.438 0.069,-0.433 0.069,-0.428C0.069,-0.409 0.085,-0.393 0.107,-0.386C0.116,-0.383 0.125,-0.381 0.134,-0.381C0.152,-0.381 0.169,-0.389 0.178,-0.409C0.195,-0.452 0.229,-0.48 0.298,-0.48C0.374,-0.48 0.408,-0.452 0.408,-0.389L0.408,-0.347ZM0.408,-0.207C0.408,-0.17 0.401,-0.15 0.382,-0.126C0.353,-0.089 0.302,-0.06 0.244,-0.06C0.185,-0.06 0.147,-0.093 0.147,-0.142C0.147,-0.187 0.167,-0.216 0.205,-0.235C0.243,-0.254 0.298,-0.264 0.408,-0.267L0.408,-0.207Z" style="fill-rule:nonzero;"/>
            </g>
            <g transform="matrix(16,0,0,16,43.164389,19.690152)">
                <path d="M0.176,-0.183L0.247,-0.251L0.425,-0C0.434,0.013 0.449,0.019 0.464,0.019C0.475,0.019 0.486,0.016 0.496,0.01C0.511,0.001 0.524,-0.016 0.524,-0.034C0.524,-0.042 0.522,-0.051 0.516,-0.059L0.324,-0.317L0.488,-0.468C0.498,-0.477 0.502,-0.488 0.502,-0.499C0.502,-0.513 0.495,-0.527 0.484,-0.539C0.474,-0.55 0.46,-0.557 0.445,-0.557C0.434,-0.557 0.422,-0.553 0.412,-0.543L0.176,-0.308L0.176,-0.741C0.176,-0.77 0.155,-0.784 0.123,-0.784C0.089,-0.784 0.069,-0.768 0.069,-0.739L0.069,-0.027C0.069,0.003 0.088,0.019 0.123,0.019C0.155,0.019 0.176,0.003 0.176,-0.027L0.176,-0.183Z" style="fill-rule:nonzero;"/>
            </g>
            <g transform="matrix(16,0,0,16,51.980389,19.690152)">
                <path d="M0.408,-0.347C0.298,-0.344 0.247,-0.338 0.193,-0.323C0.096,-0.296 0.041,-0.235 0.041,-0.143C0.041,-0.035 0.11,0.027 0.225,0.027C0.319,0.027 0.373,-0.009 0.411,-0.051C0.412,-0.034 0.414,-0.017 0.417,-0.007C0.423,0.012 0.442,0.019 0.464,0.019L0.474,0.019C0.504,0.017 0.521,0.001 0.521,-0.018C0.521,-0.022 0.521,-0.025 0.52,-0.028C0.514,-0.048 0.509,-0.081 0.509,-0.116L0.509,-0.388C0.509,-0.512 0.441,-0.566 0.3,-0.566C0.218,-0.566 0.172,-0.549 0.135,-0.523C0.109,-0.503 0.083,-0.474 0.072,-0.443C0.07,-0.438 0.069,-0.433 0.069,-0.428C0.069,-0.409 0.085,-0.393 0.107,-0.386C0.116,-0.383 0.125,-0.381 0.134,-0.381C0.152,-0.381 0.169,-0.389 0.178,-0.409C0.195,-0.452 0.229,-0.48 0.298,-0.48C0.374,-0.48 0.408,-0.452 0.408,-0.389L0.408,-0.347ZM0.408,-0.207C0.408,-0.17 0.401,-0.15 0.382,-0.126C0.353,-0.089 0.302,-0.06 0.244,-0.06C0.185,-0.06 0.147,-0.093 0.147,-0.142C0.147,-0.187 0.167,-0.216 0.205,-0.235C0.243,-0.254 0.298,-0.264 0.408,-0.267L0.408,-0.207Z" style="fill-rule:nonzero;"/>
            </g>
        </g>
        <g transform="matrix(0.383334,-0,0,1.406508,-11.893947,-9.418118)">
            <path d="M37.21,18.072L51.837,22.058L49.538,22.685L32.613,18.072L49.538,13.459L51.837,14.085L37.21,18.072L55.277,18.072L37.21,18.072Z"/>
        </g>
        <g transform="matrix(0.383334,-0,0,1.406508,-3.959385,-9.418118)">
            <path d="M37.21,18.072L51.837,22.058L49.538,22.685L32.613,18.072L49.538,13.459L51.837,14.085L37.21,18.072L55.277,18.072L37.21,18.072Z"/>
        </g>
    </g>
</svg>
