<?xml version="1.0" encoding="UTF-8" standalone="no"?>
<!DOCTYPE svg PUBLIC "-//W3C//DTD SVG 1.1//EN" "http://www.w3.org/Graphics/SVG/1.1/DTD/svg11.dtd">
<svg width="100%" height="100%" viewBox="0 0 64 32" version="1.1" xmlns="http://www.w3.org/2000/svg" xmlns:xlink="http://www.w3.org/1999/xlink" xml:space="preserve" xmlns:serif="http://www.serif.com/" style="fill-rule:evenodd;clip-rule:evenodd;stroke-linejoin:round;stroke-miterlimit:2;">
    <g id="shita" transform="matrix(1,0,0,1,4.025,-3.717269)">
        <g transform="matrix(1,0,0,1,-2.987389,10.59957)">
            <g transform="matrix(16,0,0,16,11.858389,19.690152)">
                <path d="M0.291,-0.229C0.378,-0.212 0.404,-0.188 0.404,-0.141C0.404,-0.091 0.353,-0.059 0.278,-0.059C0.204,-0.059 0.165,-0.087 0.146,-0.142C0.139,-0.163 0.119,-0.172 0.097,-0.172C0.092,-0.172 0.086,-0.171 0.08,-0.17C0.059,-0.165 0.039,-0.15 0.039,-0.126C0.039,-0.121 0.04,-0.116 0.041,-0.111C0.066,-0.026 0.144,0.03 0.279,0.03C0.424,0.03 0.508,-0.043 0.508,-0.144C0.508,-0.252 0.455,-0.292 0.323,-0.319L0.259,-0.332C0.178,-0.349 0.158,-0.368 0.158,-0.411C0.158,-0.451 0.194,-0.483 0.271,-0.483C0.326,-0.483 0.367,-0.459 0.38,-0.417C0.388,-0.397 0.407,-0.388 0.428,-0.388C0.434,-0.388 0.441,-0.389 0.447,-0.39C0.468,-0.396 0.486,-0.411 0.486,-0.432C0.486,-0.437 0.485,-0.442 0.483,-0.447C0.457,-0.519 0.384,-0.568 0.269,-0.568C0.129,-0.568 0.053,-0.5 0.053,-0.409C0.053,-0.309 0.109,-0.264 0.231,-0.241L0.291,-0.229Z" style="fill-rule:nonzero;"/>
            </g>
            <g transform="matrix(16,0,0,16,20.626389,19.690152)">
                <path d="M0.548,-0.367C0.548,-0.494 0.483,-0.566 0.361,-0.566C0.261,-0.566 0.205,-0.518 0.171,-0.448C0.173,-0.462 0.176,-0.482 0.176,-0.492L0.176,-0.74C0.176,-0.77 0.156,-0.784 0.124,-0.784C0.09,-0.784 0.069,-0.769 0.069,-0.739L0.069,-0.027C0.069,0.003 0.09,0.019 0.124,0.019C0.156,0.019 0.176,0.003 0.176,-0.027L0.176,-0.311C0.176,-0.348 0.189,-0.377 0.213,-0.409C0.244,-0.449 0.285,-0.472 0.336,-0.472C0.408,-0.472 0.44,-0.427 0.44,-0.344L0.44,-0.027C0.44,0.003 0.46,0.019 0.494,0.019C0.526,0.019 0.548,0.003 0.548,-0.027L0.548,-0.367Z" style="fill-rule:nonzero;"/>
            </g>
            <g transform="matrix(16,0,0,16,30.450389,19.690152)">
                <path d="M0.07,-0.027C0.07,0.003 0.09,0.019 0.123,0.019C0.156,0.019 0.177,0.003 0.177,-0.027L0.177,-0.513C0.177,-0.542 0.156,-0.558 0.123,-0.558C0.09,-0.558 0.07,-0.542 0.07,-0.513L0.07,-0.027ZM0.123,-0.784C0.079,-0.784 0.048,-0.755 0.048,-0.714C0.048,-0.673 0.079,-0.644 0.123,-0.644C0.167,-0.644 0.198,-0.673 0.198,-0.714C0.198,-0.755 0.167,-0.784 0.123,-0.784Z" style="fill-rule:nonzero;"/>
            </g>
            <g transform="matrix(16,0,0,16,34.402389,19.690152)">
                <path d="M0.131,-0.551L0.057,-0.551C0.029,-0.551 0.017,-0.532 0.017,-0.505C0.017,-0.479 0.029,-0.46 0.056,-0.46L0.131,-0.46L0.131,-0.128C0.131,-0.012 0.197,0.027 0.284,0.027C0.325,0.027 0.355,0.02 0.384,0.006C0.4,-0.003 0.407,-0.018 0.407,-0.035C0.407,-0.043 0.405,-0.052 0.403,-0.06C0.397,-0.079 0.383,-0.091 0.366,-0.091C0.36,-0.091 0.353,-0.089 0.347,-0.086C0.331,-0.077 0.314,-0.07 0.292,-0.07C0.257,-0.07 0.238,-0.09 0.238,-0.136L0.238,-0.46L0.36,-0.46C0.387,-0.46 0.401,-0.479 0.401,-0.505C0.401,-0.532 0.388,-0.551 0.36,-0.551L0.238,-0.551L0.238,-0.67C0.238,-0.699 0.216,-0.715 0.184,-0.715C0.15,-0.715 0.131,-0.699 0.131,-0.67L0.131,-0.551Z" style="fill-rule:nonzero;"/>
            </g>
            <g transform="matrix(16,0,0,16,41.106389,19.690152)">
                <path d="M0.408,-0.347C0.298,-0.344 0.247,-0.338 0.193,-0.323C0.096,-0.296 0.041,-0.235 0.041,-0.143C0.041,-0.035 0.11,0.027 0.225,0.027C0.319,0.027 0.373,-0.009 0.411,-0.051C0.412,-0.034 0.414,-0.017 0.417,-0.007C0.423,0.012 0.442,0.019 0.464,0.019L0.474,0.019C0.504,0.017 0.521,0.001 0.521,-0.018C0.521,-0.022 0.521,-0.025 0.52,-0.028C0.514,-0.048 0.509,-0.081 0.509,-0.116L0.509,-0.388C0.509,-0.512 0.441,-0.566 0.3,-0.566C0.218,-0.566 0.172,-0.549 0.135,-0.523C0.109,-0.503 0.083,-0.474 0.072,-0.443C0.07,-0.438 0.069,-0.433 0.069,-0.428C0.069,-0.409 0.085,-0.393 0.107,-0.386C0.116,-0.383 0.125,-0.381 0.134,-0.381C0.152,-0.381 0.169,-0.389 0.178,-0.409C0.195,-0.452 0.229,-0.48 0.298,-0.48C0.374,-0.48 0.408,-0.452 0.408,-0.389L0.408,-0.347ZM0.408,-0.207C0.408,-0.17 0.401,-0.15 0.382,-0.126C0.353,-0.089 0.302,-0.06 0.244,-0.06C0.185,-0.06 0.147,-0.093 0.147,-0.142C0.147,-0.187 0.167,-0.216 0.205,-0.235C0.243,-0.254 0.298,-0.264 0.408,-0.267L0.408,-0.207Z" style="fill-rule:nonzero;"/>
            </g>
        </g>
        <g transform="matrix(0,-0.352972,1.517502,0,0.551013,26.357987)">
            <path d="M37.999,18.072L55.138,22.058L52.444,22.685L32.613,18.072L52.444,13.459L55.138,14.085L37.999,18.072L55.277,18.072L37.999,18.072Z"/>
        </g>
    </g>
</svg>
