<?xml version="1.0" encoding="UTF-8" standalone="no"?>
<!DOCTYPE svg PUBLIC "-//W3C//DTD SVG 1.1//EN" "http://www.w3.org/Graphics/SVG/1.1/DTD/svg11.dtd">
<svg width="100%" height="100%" viewBox="0 0 64 32" version="1.1" xmlns="http://www.w3.org/2000/svg" xmlns:xlink="http://www.w3.org/1999/xlink" xml:space="preserve" xmlns:serif="http://www.serif.com/" style="fill-rule:evenodd;clip-rule:evenodd;stroke-linejoin:round;stroke-miterlimit:2;">
    <g id="small" transform="matrix(1,0,0,1,4,0)">
        <g transform="matrix(0.740943,0,0,0.740943,-3.369648,5.934717)">
            <g transform="matrix(16.195574,0,0,16.195574,20.602995,19.690152)">
                <path d="M0.291,-0.229C0.378,-0.212 0.404,-0.188 0.404,-0.141C0.404,-0.091 0.353,-0.059 0.278,-0.059C0.204,-0.059 0.165,-0.087 0.146,-0.142C0.139,-0.163 0.119,-0.172 0.097,-0.172C0.092,-0.172 0.086,-0.171 0.08,-0.17C0.059,-0.165 0.039,-0.15 0.039,-0.126C0.039,-0.121 0.04,-0.116 0.041,-0.111C0.066,-0.026 0.144,0.03 0.279,0.03C0.424,0.03 0.508,-0.043 0.508,-0.144C0.508,-0.252 0.455,-0.292 0.323,-0.319L0.259,-0.332C0.178,-0.349 0.158,-0.368 0.158,-0.411C0.158,-0.451 0.194,-0.483 0.271,-0.483C0.326,-0.483 0.367,-0.459 0.38,-0.417C0.388,-0.397 0.407,-0.388 0.428,-0.388C0.434,-0.388 0.441,-0.389 0.447,-0.39C0.468,-0.396 0.486,-0.411 0.486,-0.432C0.486,-0.437 0.485,-0.442 0.483,-0.447C0.457,-0.519 0.384,-0.568 0.269,-0.568C0.129,-0.568 0.053,-0.5 0.053,-0.409C0.053,-0.309 0.109,-0.264 0.231,-0.241L0.291,-0.229Z" style="fill-rule:nonzero;"/>
            </g>
            <g transform="matrix(16.195574,0,0,16.195574,30.287948,19.690152)">
                <path d="M0.824,-0.368C0.824,-0.494 0.776,-0.566 0.656,-0.566C0.548,-0.566 0.511,-0.511 0.481,-0.459C0.467,-0.527 0.419,-0.566 0.331,-0.566C0.237,-0.566 0.194,-0.513 0.169,-0.455C0.171,-0.468 0.174,-0.484 0.174,-0.496L0.174,-0.514C0.174,-0.543 0.154,-0.558 0.123,-0.558C0.089,-0.558 0.068,-0.542 0.068,-0.513L0.068,-0.027C0.068,0.003 0.088,0.019 0.122,0.019C0.154,0.019 0.175,0.003 0.175,-0.027L0.175,-0.319C0.175,-0.352 0.183,-0.387 0.201,-0.413C0.224,-0.446 0.253,-0.473 0.302,-0.473C0.367,-0.473 0.391,-0.427 0.391,-0.344L0.391,-0.027C0.391,0.003 0.41,0.019 0.444,0.019C0.476,0.019 0.497,0.003 0.497,-0.027L0.497,-0.323C0.497,-0.353 0.507,-0.39 0.523,-0.412C0.547,-0.446 0.578,-0.473 0.627,-0.473C0.694,-0.473 0.716,-0.427 0.716,-0.344L0.716,-0.027C0.716,0.003 0.736,0.019 0.769,0.019C0.801,0.019 0.824,0.003 0.824,-0.027L0.824,-0.368Z" style="fill-rule:nonzero;"/>
            </g>
            <g transform="matrix(16.195574,0,0,16.195574,45.527984,19.690152)">
                <path d="M0.408,-0.347C0.298,-0.344 0.247,-0.338 0.193,-0.323C0.096,-0.296 0.041,-0.235 0.041,-0.143C0.041,-0.035 0.11,0.027 0.225,0.027C0.319,0.027 0.373,-0.009 0.411,-0.051C0.412,-0.034 0.414,-0.017 0.417,-0.007C0.423,0.012 0.442,0.019 0.464,0.019L0.474,0.019C0.504,0.017 0.521,0.001 0.521,-0.018C0.521,-0.022 0.521,-0.025 0.52,-0.028C0.514,-0.048 0.509,-0.081 0.509,-0.116L0.509,-0.388C0.509,-0.512 0.441,-0.566 0.3,-0.566C0.218,-0.566 0.172,-0.549 0.135,-0.523C0.109,-0.503 0.083,-0.474 0.072,-0.443C0.07,-0.438 0.069,-0.433 0.069,-0.428C0.069,-0.409 0.085,-0.393 0.107,-0.386C0.116,-0.383 0.125,-0.381 0.134,-0.381C0.152,-0.381 0.169,-0.389 0.178,-0.409C0.195,-0.452 0.229,-0.48 0.298,-0.48C0.374,-0.48 0.408,-0.452 0.408,-0.389L0.408,-0.347ZM0.408,-0.207C0.408,-0.17 0.401,-0.15 0.382,-0.126C0.353,-0.089 0.302,-0.06 0.244,-0.06C0.185,-0.06 0.147,-0.093 0.147,-0.142C0.147,-0.187 0.167,-0.216 0.205,-0.235C0.243,-0.254 0.298,-0.264 0.408,-0.267L0.408,-0.207Z" style="fill-rule:nonzero;"/>
            </g>
            <g transform="matrix(16.195574,0,0,16.195574,55.812173,19.690152)">
                <path d="M0.068,-0.027C0.068,0.003 0.088,0.019 0.122,0.019C0.155,0.019 0.176,0.003 0.176,-0.027L0.176,-0.738C0.176,-0.769 0.155,-0.784 0.122,-0.784C0.088,-0.784 0.068,-0.769 0.068,-0.738L0.068,-0.027Z" style="fill-rule:nonzero;"/>
            </g>
            <g transform="matrix(16.195574,0,0,16.195574,60.589868,19.690152)">
                <path d="M0.068,-0.027C0.068,0.003 0.088,0.019 0.122,0.019C0.155,0.019 0.176,0.003 0.176,-0.027L0.176,-0.738C0.176,-0.769 0.155,-0.784 0.122,-0.784C0.088,-0.784 0.068,-0.769 0.068,-0.738L0.068,-0.027Z" style="fill-rule:nonzero;"/>
            </g>
        </g>
    </g>
</svg>
