<?xml version="1.0" encoding="UTF-8" standalone="no"?>
<!DOCTYPE svg PUBLIC "-//W3C//DTD SVG 1.1//EN" "http://www.w3.org/Graphics/SVG/1.1/DTD/svg11.dtd">
<svg width="100%" height="100%" viewBox="0 0 64 32" version="1.1" xmlns="http://www.w3.org/2000/svg" xmlns:xlink="http://www.w3.org/1999/xlink" xml:space="preserve" xmlns:serif="http://www.serif.com/" style="fill-rule:evenodd;clip-rule:evenodd;stroke-linejoin:round;stroke-miterlimit:2;">
    <g id="ue" transform="matrix(1,0,0,1,4.025,-3.717269)">
        <g transform="matrix(1,0,0,1,-2.987389,0.027117)">
            <g transform="matrix(16,0,0,16,21.586389,19.690152)">
                <path d="M0.065,-0.172C0.065,-0.046 0.132,0.028 0.252,0.028C0.348,0.028 0.406,-0.018 0.439,-0.086C0.437,-0.073 0.434,-0.056 0.434,-0.046L0.434,-0.022C0.434,0.005 0.455,0.019 0.488,0.019C0.521,0.019 0.541,0.004 0.541,-0.026L0.541,-0.512C0.541,-0.542 0.52,-0.558 0.487,-0.558C0.455,-0.558 0.433,-0.542 0.433,-0.512L0.433,-0.229C0.433,-0.193 0.422,-0.161 0.399,-0.13C0.368,-0.088 0.327,-0.065 0.277,-0.065C0.207,-0.065 0.174,-0.11 0.174,-0.195L0.174,-0.512C0.174,-0.542 0.153,-0.558 0.12,-0.558C0.087,-0.558 0.065,-0.542 0.065,-0.512L0.065,-0.172Z" style="fill-rule:nonzero;"/>
            </g>
            <g transform="matrix(16,0,0,16,31.362389,19.690152)">
                <path d="M0.498,-0.246C0.529,-0.246 0.549,-0.265 0.549,-0.303L0.549,-0.309C0.541,-0.453 0.451,-0.567 0.302,-0.567C0.135,-0.567 0.042,-0.442 0.042,-0.267C0.042,-0.09 0.14,0.029 0.308,0.029C0.443,0.029 0.503,-0.037 0.535,-0.103C0.538,-0.11 0.54,-0.117 0.54,-0.124C0.54,-0.144 0.524,-0.159 0.504,-0.164C0.495,-0.167 0.486,-0.169 0.478,-0.169C0.461,-0.169 0.447,-0.161 0.438,-0.141C0.414,-0.09 0.377,-0.057 0.309,-0.057C0.209,-0.057 0.15,-0.128 0.146,-0.246L0.498,-0.246ZM0.149,-0.328C0.163,-0.424 0.211,-0.483 0.303,-0.483C0.391,-0.483 0.431,-0.413 0.442,-0.345C0.443,-0.343 0.443,-0.341 0.443,-0.339C0.443,-0.331 0.439,-0.328 0.429,-0.328L0.149,-0.328Z" style="fill-rule:nonzero;"/>
            </g>
        </g>
        <g transform="matrix(0,0.352972,-1.517502,0,55.398987,11.258334)">
            <path d="M37.999,18.072L55.138,22.058L52.444,22.685L32.613,18.072L52.444,13.459L55.138,14.085L37.999,18.072L55.277,18.072L37.999,18.072Z"/>
        </g>
    </g>
</svg>
